<?xml version="1.0" standalone="no"?>
 <!DOCTYPE svg PUBLIC "-//W3C//DTD SVG 1.1//EN" 
 "http://www.w3.org/Graphics/SVG/1.1/DTD/svg11.dtd"> 
<svg
  xmlns:svg="http://www.w3.org/2000/svg"
  xmlns="http://www.w3.org/2000/svg"
  xmlns:xlink="http://www.w3.org/1999/xlink"
  xmlns:inkscape="http://www.inkscape.org/namespaces/inkscape"
  version="1.1"
  width="79.9846mm" height="124.9934mm" viewBox="0.0000 0.0000 79.9846 124.9934">
<title>SVG Image created as pcb1_Fcu.svg date 2026-08-14T22:44:19 </title>
  <desc>Image generated by PCBNEW </desc>
<g style="fill:#000000; fill-opacity:1.0000;stroke:#000000; stroke-opacity:1.0000;
stroke-linecap:round; stroke-linejoin:round;"
 transform="translate(0 0) scale(1 1)">
<path style="fill:#C83434; fill-opacity:1.0000; stroke:none;fill-rule:evenodd;"
d="M 47.5675,64.8540
47.5675,63.0540
49.3675,63.0540
49.3675,64.8540
Z" /> 
</g>
<g style="fill:#C83434; fill-opacity:1.0000; stroke:none;">
<circle cx="51.0075" cy="63.9540" r="0.9000" /> 
<circle cx="5.5415" cy="5.5340" r="3.5000" /> 
<circle cx="65.3714" cy="119.4212" r="0.8000" /> 
<circle cx="65.3714" cy="109.2612" r="0.8000" /> 
<circle cx="58.4135" cy="90.6240" r="0.8000" /> 
<circle cx="48.2535" cy="90.6240" r="0.8000" /> 
<circle cx="74.3755" cy="119.3260" r="3.5000" /> 
<path style="fill:#C83434; fill-opacity:1.0000; stroke:none;fill-rule:evenodd;"
d="M 58.8795,88.1170
58.7838,88.0980
58.7027,88.0438
58.6485,87.9627
58.6295,87.8670
58.6295,86.7670
58.6485,86.6713
58.7027,86.5902
58.7838,86.5360
58.8795,86.5170
59.9795,86.5170
60.0752,86.5360
60.1563,86.5902
60.2105,86.6713
60.2295,86.7670
60.2295,87.8670
60.2105,87.9627
60.1563,88.0438
60.0752,88.0980
59.9795,88.1170
Z" /> 
<circle cx="61.9695" cy="87.3170" r="0.8000" /> 
<circle cx="64.5095" cy="87.3170" r="0.8000" /> 
<circle cx="67.0495" cy="87.3170" r="0.8000" /> 
<circle cx="67.0495" cy="79.6970" r="0.8000" /> 
<circle cx="64.5095" cy="79.6970" r="0.8000" /> 
<circle cx="61.9695" cy="79.6970" r="0.8000" /> 
<circle cx="59.4295" cy="79.6970" r="0.8000" /> 
<path style="fill:#C83434; fill-opacity:1.0000; stroke:none;fill-rule:evenodd;"
d="M 55.6651,43.0625
53.6651,43.0625
53.6651,41.1575
55.6651,41.1575
Z" /> 
</g>
<g style="fill:none; 
stroke:#C83434; stroke-width:1.9050; stroke-opacity:1; 
stroke-linecap:round; stroke-linejoin:round;">
<path d="M54.6176 39.5700
L54.7126 39.5700
" />
<path d="M54.6176 37.0300
L54.7126 37.0300
" />
</g>
<g style="fill:#C83434; fill-opacity:1.0000; stroke:none;">
<circle cx="43.6544" cy="114.1526" r="0.8000" /> 
<circle cx="53.8144" cy="114.1526" r="0.8000" /> 
<circle cx="70.3115" cy="57.6040" r="0.8000" /> 
<circle cx="60.1515" cy="57.6040" r="0.8000" /> 
<circle cx="45.4195" cy="17.3450" r="1.2500" /> 
<circle cx="55.5795" cy="17.3450" r="1.2500" /> 
<circle cx="54.7027" cy="110.0208" r="0.8000" /> 
<circle cx="54.7027" cy="105.0208" r="0.8000" /> 
<circle cx="5.4145" cy="118.9450" r="3.5000" /> 
<circle cx="73.8682" cy="96.9714" r="0.8000" /> 
<circle cx="73.8682" cy="101.9714" r="0.8000" /> 
<circle cx="64.9775" cy="63.9540" r="0.8000" /> 
<circle cx="54.8175" cy="63.9540" r="0.8000" /> 
<path style="fill:#C83434; fill-opacity:1.0000; stroke:none;fill-rule:evenodd;"
d="M 50.8978,100.0226
50.9935,100.0416
51.0746,100.0958
51.1288,100.1769
51.1478,100.2726
51.1478,101.3726
51.1288,101.4683
51.0746,101.5494
50.9935,101.6036
50.8978,101.6226
49.7978,101.6226
49.7021,101.6036
49.6210,101.5494
49.5668,101.4683
49.5478,101.3726
49.5478,100.2726
49.5668,100.1769
49.6210,100.0958
49.7021,100.0416
49.7978,100.0226
Z" /> 
<circle cx="47.8078" cy="100.8226" r="0.8000" /> 
<circle cx="45.2678" cy="100.8226" r="0.8000" /> 
<circle cx="42.7278" cy="100.8226" r="0.8000" /> 
<circle cx="42.7278" cy="108.4426" r="0.8000" /> 
<circle cx="45.2678" cy="108.4426" r="0.8000" /> 
<circle cx="47.8078" cy="108.4426" r="0.8000" /> 
<circle cx="50.3478" cy="108.4426" r="0.8000" /> 
<path style="fill:#C83434; fill-opacity:1.0000; stroke:none;fill-rule:evenodd;"
d="M 13.6006,22.9692
13.6196,22.8735
13.6738,22.7924
13.7549,22.7382
13.8506,22.7192
17.3506,22.7192
17.4463,22.7382
17.5274,22.7924
17.5816,22.8735
17.6006,22.9692
17.6006,26.4692
17.5816,26.5649
17.5274,26.6460
17.4463,26.7002
17.3506,26.7192
13.8506,26.7192
13.7549,26.7002
13.6738,26.6460
13.6196,26.5649
13.6006,26.4692
Z" /> 
<circle cx="25.6006" cy="24.7192" r="2.0000" /> 
<circle cx="72.1295" cy="90.6240" r="0.8000" /> 
<circle cx="61.9695" cy="90.6240" r="0.8000" /> 
<circle cx="43.1335" cy="61.4140" r="0.8000" /> 
<circle cx="43.1335" cy="71.5740" r="0.8000" /> 
<path style="fill:#C83434; fill-opacity:1.0000; stroke:none;fill-rule:evenodd;"
d="M 13.6006,99.7788
13.6196,99.6831
13.6738,99.6020
13.7549,99.5478
13.8506,99.5288
17.3506,99.5288
17.4463,99.5478
17.5274,99.6020
17.5816,99.6831
17.6006,99.7788
17.6006,103.2788
17.5816,103.3745
17.5274,103.4556
17.4463,103.5098
17.3506,103.5288
13.8506,103.5288
13.7549,103.5098
13.6738,103.4556
13.6196,103.3745
13.6006,103.2788
Z" /> 
<circle cx="25.6006" cy="101.5288" r="2.0000" /> 
<circle cx="50.4995" cy="52.2700" r="3.0000" /> 
<circle cx="50.4995" cy="26.8700" r="3.0000" /> 
<path style="fill:#C83434; fill-opacity:1.0000; stroke:none;fill-rule:evenodd;"
d="M 13.6006,61.3740
13.6196,61.2783
13.6738,61.1972
13.7549,61.1430
13.8506,61.1240
17.3506,61.1240
17.4463,61.1430
17.5274,61.1972
17.5816,61.2783
17.6006,61.3740
17.6006,64.8740
17.5816,64.9697
17.5274,65.0508
17.4463,65.1050
17.3506,65.1240
13.8506,65.1240
13.7549,65.1050
13.6738,65.0508
13.6196,64.9697
13.6006,64.8740
Z" /> 
<circle cx="25.6006" cy="63.1240" r="2.0000" /> 
<circle cx="59.4695" cy="74.1140" r="0.8000" /> 
<circle cx="66.9695" cy="74.1140" r="0.8000" /> 
<circle cx="74.3755" cy="5.5340" r="3.5000" /> 
<circle cx="65.3714" cy="106.7212" r="0.8000" /> 
<circle cx="65.3714" cy="96.5612" r="0.8000" /> 
<path style="fill:#C83434; fill-opacity:1.0000; stroke:none;fill-rule:evenodd;"
d="M 60.1986,112.2094
60.1029,112.1904
60.0218,112.1362
59.9676,112.0551
59.9486,111.9594
59.9486,110.8594
59.9676,110.7637
60.0218,110.6826
60.1029,110.6284
60.1986,110.6094
61.2986,110.6094
61.3943,110.6284
61.4754,110.6826
61.5296,110.7637
61.5486,110.8594
61.5486,111.9594
61.5296,112.0551
61.4754,112.1362
61.3943,112.1904
61.2986,112.2094
Z" /> 
<circle cx="60.7486" cy="103.7894" r="0.8000" /> 
<path style="fill:#C83434; fill-opacity:1.0000; stroke:none;fill-rule:evenodd;"
d="M 69.3215,16.1780
69.4172,16.1970
69.4983,16.2512
69.5525,16.3323
69.5715,16.4280
69.5715,18.0080
69.5525,18.1037
69.4983,18.1848
69.4172,18.2390
69.3215,18.2580
66.2215,18.2580
66.1258,18.2390
66.0447,18.1848
65.9905,18.1037
65.9715,18.0080
65.9715,16.4280
65.9905,16.3323
66.0447,16.2512
66.1258,16.1970
66.2215,16.1780
Z" /> 
</g>
<g style="fill:none; 
stroke:#C83434; stroke-width:2.0800; stroke-opacity:1; 
stroke-linecap:round; stroke-linejoin:round;">
<path d="M68.5315 22.2980
L67.0115 22.2980
" />
<path d="M68.5315 27.3780
L67.0115 27.3780
" />
<path style="fill:#C83434; fill-opacity:1.0000; stroke:none;fill-rule:evenodd;"
d="M 69.1945,38.5300
69.2902,38.5490
69.3713,38.6032
69.4255,38.6843
69.4445,38.7800
69.4445,40.3600
69.4255,40.4557
69.3713,40.5368
69.2902,40.5910
69.1945,40.6100
66.0945,40.6100
65.9988,40.5910
65.9177,40.5368
65.8635,40.4557
65.8445,40.3600
65.8445,38.7800
65.8635,38.6843
65.9177,38.6032
65.9988,38.5490
66.0945,38.5300
Z" /> 
</g>
<g style="fill:none; 
stroke:#C83434; stroke-width:2.0800; stroke-opacity:1; 
stroke-linecap:round; stroke-linejoin:round;">
<path d="M68.4045 44.6500
L66.8845 44.6500
" />
<path d="M68.4045 49.7300
L66.8845 49.7300
" />
</g>
<g style="fill:#C83434; fill-opacity:1.0000; stroke:none;">
<circle cx="40.5935" cy="35.7600" r="1.2500" /> 
<circle cx="40.5935" cy="44.1420" r="1.2500" /> 
<circle cx="70.5662" cy="74.0968" r="1.2500" /> 
<circle cx="70.5408" cy="63.9368" r="1.2500" /> 
<circle cx="69.5495" cy="93.9260" r="1.2500" /> 
<circle cx="75.3915" cy="93.9260" r="1.2500" /> 
</g>
<g style="fill:none; 
stroke:#C83434; stroke-width:2.0000; stroke-opacity:1; 
stroke-linecap:round; stroke-linejoin:round;">
<path d="M54.6651 39.5700
L59.6435 39.5700
" />
</g>
<g style="fill:none; 
stroke:#C83434; stroke-width:3.0000; stroke-opacity:1; 
stroke-linecap:round; stroke-linejoin:round;">
<path d="M59.6435 46.9360
L59.6435 39.5700
" />
<path d="M51.1860 39.5782
L36.4718 39.5782
" />
<path d="M36.4718 39.5782
L36.4718 35.5904
" />
</g>
<g style="fill:none; 
stroke:#C83434; stroke-width:2.0000; stroke-opacity:1; 
stroke-linecap:round; stroke-linejoin:round;">
<path d="M51.1860 39.5782
L51.1942 39.5700
" />
</g>
<g style="fill:none; 
stroke:#C83434; stroke-width:0.8000; stroke-opacity:1; 
stroke-linecap:round; stroke-linejoin:round;">
<path d="M64.2155 60.6520
L64.2155 49.7300
" />
<path d="M48.4675 63.9540
L51.7695 60.6520
" />
<path d="M51.7695 60.6520
L64.2155 60.6520
" />
</g>
<g style="fill:none; 
stroke:#C83434; stroke-width:3.0000; stroke-opacity:1; 
stroke-linecap:round; stroke-linejoin:round;">
<path d="M25.6006 101.5288
L25.6006 24.7192
" />
<path d="M36.4718 35.5904
L25.6006 24.7192
" />
<path d="M25.6006 101.5288
L25.6006 63.1240
" />
<path d="M64.2155 49.7300
L62.4375 49.7300
" />
</g>
<g style="fill:none; 
stroke:#C83434; stroke-width:2.0000; stroke-opacity:1; 
stroke-linecap:round; stroke-linejoin:round;">
<path d="M54.6651 39.5700
L51.1942 39.5700
" />
</g>
<g style="fill:none; 
stroke:#C83434; stroke-width:3.0000; stroke-opacity:1; 
stroke-linecap:round; stroke-linejoin:round;">
<path d="M67.6445 49.7300
L64.2155 49.7300
" />
<path d="M62.4375 49.7300
L59.6435 46.9360
" />
</g>
<g style="fill:none; 
stroke:#C83434; stroke-width:0.8000; stroke-opacity:1; 
stroke-linecap:round; stroke-linejoin:round;">
<path d="M51.0075 63.9540
L54.8175 63.9540
" />
<path d="M42.7278 100.8226
L40.9810 100.8226
" />
<path d="M59.4695 74.1140
L59.4695 79.6570
" />
<path d="M64.9775 66.7480
L61.9695 66.7480
" />
</g>
<g style="fill:none; 
stroke:#C83434; stroke-width:3.0000; stroke-opacity:1; 
stroke-linecap:round; stroke-linejoin:round;">
<path d="M15.6006 63.1240
L15.6006 101.5288
" />
</g>
<g style="fill:none; 
stroke:#C83434; stroke-width:0.8000; stroke-opacity:1; 
stroke-linecap:round; stroke-linejoin:round;">
<path d="M64.9775 63.9540
L64.9775 66.7480
" />
<path d="M61.2992 108.3278
L50.4626 108.3278
" />
<path d="M15.6006 101.5288
L20.2227 106.1509
" />
<path d="M73.6135 39.5700
L74.3755 40.3320
" />
<path d="M67.6445 39.5700
L73.6135 39.5700
" />
</g>
<g style="fill:none; 
stroke:#C83434; stroke-width:3.0000; stroke-opacity:1; 
stroke-linecap:round; stroke-linejoin:round;">
<path d="M15.6006 24.7192
L15.6006 63.1240
" />
<path d="M15.8622 63.8428
L15.9054 63.8860
" />
</g>
<g style="fill:none; 
stroke:#C83434; stroke-width:0.8000; stroke-opacity:1; 
stroke-linecap:round; stroke-linejoin:round;">
<path d="M65.3714 119.4212
L48.9230 119.4212
" />
<path d="M59.4695 79.6570
L59.4295 79.6970
" />
<path d="M74.3755 40.3320
L74.3755 65.4780
" />
</g>
<g style="fill:none; 
stroke:#C83434; stroke-width:3.0000; stroke-opacity:1; 
stroke-linecap:round; stroke-linejoin:round;">
<path d="M72.5975 17.2180
L67.7715 17.2180
" />
</g>
<g style="fill:none; 
stroke:#C83434; stroke-width:0.8000; stroke-opacity:1; 
stroke-linecap:round; stroke-linejoin:round;">
<path d="M50.4626 108.3278
L50.3478 108.4426
" />
<path d="M59.4695 74.1140
L59.4695 69.2480
" />
<path d="M43.6544 114.1526
L35.6527 106.1509
" />
<path d="M48.9230 119.4212
L43.6544 114.1526
" />
</g>
<g style="fill:none; 
stroke:#C83434; stroke-width:0.2000; stroke-opacity:1; 
stroke-linecap:round; stroke-linejoin:round;">
<path d="M73.1055 17.7260
L73.1055 17.4720
" />
</g>
<g style="fill:none; 
stroke:#C83434; stroke-width:0.8000; stroke-opacity:1; 
stroke-linecap:round; stroke-linejoin:round;">
<path d="M65.3714 119.4212
L65.3714 112.4000
" />
<path d="M16.5645 99.6150
L16.5645 100.5649
" />
<path d="M20.2227 106.1509
L35.6527 106.1509
" />
</g>
<g style="fill:none; 
stroke:#C83434; stroke-width:3.0000; stroke-opacity:1; 
stroke-linecap:round; stroke-linejoin:round;">
<path d="M31.8648 8.4550
L15.6006 24.7192
" />
<path d="M74.1215 33.0930
L67.6445 39.5700
" />
</g>
<g style="fill:none; 
stroke:#C83434; stroke-width:0.8000; stroke-opacity:1; 
stroke-linecap:round; stroke-linejoin:round;">
<path d="M74.3755 65.4780
L74.3755 65.9860
" />
<path d="M74.3755 65.9860
L73.6135 66.7480
" />
</g>
<g style="fill:none; 
stroke:#C83434; stroke-width:3.0000; stroke-opacity:1; 
stroke-linecap:round; stroke-linejoin:round;">
<path d="M59.0085 8.4550
L31.8648 8.4550
" />
<path d="M74.1215 18.7420
L72.5975 17.2180
" />
<path d="M67.7715 17.2180
L59.0085 8.4550
" />
</g>
<g style="fill:none; 
stroke:#C83434; stroke-width:0.8000; stroke-opacity:1; 
stroke-linecap:round; stroke-linejoin:round;">
<path d="M42.6130 100.7078
L42.7278 100.8226
" />
<path d="M59.4695 69.2480
L61.9695 66.7480
" />
<path d="M65.3714 112.4000
L61.2992 108.3278
" />
<path d="M40.9810 100.8226
L35.6527 106.1509
" />
</g>
<g style="fill:none; 
stroke:#C83434; stroke-width:3.0000; stroke-opacity:1; 
stroke-linecap:round; stroke-linejoin:round;">
<path d="M74.1215 18.7420
L74.1215 33.0930
" />
</g>
<g style="fill:none; 
stroke:#C83434; stroke-width:0.8000; stroke-opacity:1; 
stroke-linecap:round; stroke-linejoin:round;">
<path d="M73.6135 66.7480
L64.9775 66.7480
" />
</g>
<g style="fill:none; 
stroke:#C83434; stroke-width:0.2000; stroke-opacity:1; 
stroke-linecap:round; stroke-linejoin:round;">
<path d="M74.1215 18.7420
L73.1055 17.7260
" />
</g>
<g style="fill:none; 
stroke:#C83434; stroke-width:0.8000; stroke-opacity:1; 
stroke-linecap:round; stroke-linejoin:round;">
<path d="M16.5645 100.5649
L15.6006 101.5288
" />
<path d="M65.3714 106.7212
L65.1950 106.5448
" />
<path d="M47.9226 106.5448
L47.8078 106.6596
" />
<path d="M65.3714 109.2612
L65.3714 106.7212
" />
<path d="M47.8078 106.6596
L47.8078 108.4426
" />
<path d="M65.1950 106.5448
L47.9226 106.5448
" />
<path d="M61.9695 90.6240
L61.9695 87.3170
" />
<path d="M58.4135 90.6240
L61.9695 90.6240
" />
<path d="M50.2905 87.3170
L59.4295 87.3170
" />
<path d="M59.4295 87.3170
L64.5095 82.2370
" />
<path d="M64.5095 82.2370
L64.5095 79.6970
" />
<path d="M48.2535 89.3540
L50.2905 87.3170
" />
<path d="M48.2535 90.6240
L48.2535 89.3540
" />
<path d="M40.5935 35.7600
L42.3715 35.7600
" />
<path d="M40.5935 44.1420
L40.5935 46.4280
" />
<path d="M64.5095 92.6560
L64.5095 87.3170
" />
<path d="M42.3715 35.7600
L45.4195 32.7120
" />
</g>
<g style="fill:none; 
stroke:#C83434; stroke-width:3.0000; stroke-opacity:1; 
stroke-linecap:round; stroke-linejoin:round;">
<path d="M45.4195 32.7120
L46.6215 33.9140
" />
</g>
<g style="fill:none; 
stroke:#C83434; stroke-width:0.8000; stroke-opacity:1; 
stroke-linecap:round; stroke-linejoin:round;">
<path d="M38.0288 48.9927
L38.0288 72.3188
" />
</g>
<g style="fill:none; 
stroke:#C83434; stroke-width:3.0000; stroke-opacity:1; 
stroke-linecap:round; stroke-linejoin:round;">
<path d="M53.4720 33.9140
L46.6215 33.9140
" />
</g>
<g style="fill:none; 
stroke:#C83434; stroke-width:2.0000; stroke-opacity:1; 
stroke-linecap:round; stroke-linejoin:round;">
<path d="M54.6651 35.1071
L54.6651 37.0300
" />
</g>
<g style="fill:none; 
stroke:#C83434; stroke-width:0.8000; stroke-opacity:1; 
stroke-linecap:round; stroke-linejoin:round;">
<path d="M38.0288 72.3188
L43.4390 77.7290
" />
<path d="M43.4390 90.8018
L45.2932 92.6560
" />
<path d="M40.5935 46.4280
L38.0288 48.9927
" />
</g>
<g style="fill:none; 
stroke:#C83434; stroke-width:3.0000; stroke-opacity:1; 
stroke-linecap:round; stroke-linejoin:round;">
<path d="M45.4195 17.3450
L45.4195 32.7120
" />
</g>
<g style="fill:none; 
stroke:#C83434; stroke-width:0.8000; stroke-opacity:1; 
stroke-linecap:round; stroke-linejoin:round;">
<path d="M45.2932 92.6560
L64.5095 92.6560
" />
<path d="M43.4390 77.7290
L43.4390 90.8018
" />
</g>
<g style="fill:none; 
stroke:#C83434; stroke-width:2.0000; stroke-opacity:1; 
stroke-linecap:round; stroke-linejoin:round;">
<path d="M53.4720 33.9140
L54.6651 35.1071
" />
</g>
<g style="fill:none; 
stroke:#C83434; stroke-width:0.8000; stroke-opacity:1; 
stroke-linecap:round; stroke-linejoin:round;">
<path d="M72.3435 87.3220
L72.3435 87.6597
" />
<path d="M70.5490 74.1140
L66.9695 74.1140
" />
<path d="M67.7715 27.3780
L63.7075 31.4420
" />
<path d="M54.6272 104.9453
L54.7027 105.0208
" />
</g>
<g style="fill:none; 
stroke:#C83434; stroke-width:3.0000; stroke-opacity:1; 
stroke-linecap:round; stroke-linejoin:round;">
<path d="M60.4055 25.4055
L62.0000 27.0000
" />
</g>
<g style="fill:none; 
stroke:#C83434; stroke-width:0.8000; stroke-opacity:1; 
stroke-linecap:round; stroke-linejoin:round;">
<path d="M70.5662 74.0968
L70.5662 76.1467
" />
</g>
<g style="fill:none; 
stroke:#C83434; stroke-width:2.0000; stroke-opacity:1; 
stroke-linecap:round; stroke-linejoin:round;">
<path d="M67.1395 27.0000
L67.6445 27.5050
" />
</g>
<g style="fill:none; 
stroke:#C83434; stroke-width:0.8000; stroke-opacity:1; 
stroke-linecap:round; stroke-linejoin:round;">
<path d="M50.3478 100.8226
L50.4626 100.7078
" />
<path d="M72.1295 100.2327
L73.8682 101.9714
" />
<path d="M54.6272 101.6558
L70.7064 101.6558
" />
</g>
<g style="fill:none; 
stroke:#C83434; stroke-width:3.0000; stroke-opacity:1; 
stroke-linecap:round; stroke-linejoin:round;">
<path d="M60.4055 17.7260
L60.4055 25.4055
" />
</g>
<g style="fill:none; 
stroke:#C83434; stroke-width:0.8000; stroke-opacity:1; 
stroke-linecap:round; stroke-linejoin:round;">
<path d="M63.7075 31.4420
L63.7075 42.1100
" />
</g>
<g style="fill:none; 
stroke:#C83434; stroke-width:3.0000; stroke-opacity:1; 
stroke-linecap:round; stroke-linejoin:round;">
<path d="M62.0000 27.0000
L67.1395 27.0000
" />
</g>
<g style="fill:none; 
stroke:#C83434; stroke-width:0.8000; stroke-opacity:1; 
stroke-linecap:round; stroke-linejoin:round;">
<path d="M72.0895 63.7000
L72.0895 57.6040
" />
<path d="M70.7064 101.6558
L72.1295 100.2327
" />
<path d="M70.5662 74.0968
L70.5490 74.1140
" />
<path d="M70.7776 63.7000
L72.0895 63.7000
" />
<path d="M72.1295 90.6240
L72.1295 100.2327
" />
<path d="M59.5172 105.0208
L60.7486 103.7894
" />
<path d="M72.0895 42.8720
L72.0895 57.6040
" />
<path d="M54.7027 105.0208
L59.5172 105.0208
" />
<path d="M70.5408 63.9368
L70.7776 63.7000
" />
</g>
<g style="fill:none; 
stroke:#C83434; stroke-width:3.0000; stroke-opacity:1; 
stroke-linecap:round; stroke-linejoin:round;">
<path d="M60.0245 17.3450
L60.4055 17.7260
" />
</g>
<g style="fill:none; 
stroke:#C83434; stroke-width:0.8000; stroke-opacity:1; 
stroke-linecap:round; stroke-linejoin:round;">
<path d="M72.3435 87.6597
L72.1295 87.8737
" />
<path d="M53.6792 100.7078
L54.6272 101.6558
" />
</g>
<g style="fill:none; 
stroke:#C83434; stroke-width:3.0000; stroke-opacity:1; 
stroke-linecap:round; stroke-linejoin:round;">
<path d="M55.5795 17.3450
L60.0245 17.3450
" />
</g>
<g style="fill:none; 
stroke:#C83434; stroke-width:0.8000; stroke-opacity:1; 
stroke-linecap:round; stroke-linejoin:round;">
<path d="M70.3115 57.6040
L72.0895 57.6040
" />
<path d="M54.6272 101.6558
L54.6272 104.9453
" />
<path d="M72.3435 77.9240
L72.3435 87.3220
" />
<path d="M70.5662 76.1467
L72.3435 77.9240
" />
<path d="M72.1295 87.8737
L72.1295 90.6240
" />
<path d="M71.3275 42.1100
L72.0895 42.8720
" />
<path d="M50.4626 100.7078
L53.6792 100.7078
" />
<path d="M72.3385 87.3170
L72.3435 87.3220
" />
<path d="M67.0495 87.3170
L72.3385 87.3170
" />
<path d="M63.7075 42.1100
L71.3275 42.1100
" />
<path d="M71.3275 71.5740
L75.3915 75.6380
" />
<path d="M67.2985 79.4480
L67.0495 79.6970
" />
<path d="M62.1835 74.8310
L62.1835 72.5900
" />
<path d="M50.2133 96.5612
L47.8078 98.9667
" />
<path d="M45.2678 103.3626
L47.8078 100.8226
" />
<path d="M67.0495 79.6970
L62.1835 74.8310
" />
<path d="M65.3714 96.5612
L66.9143 96.5612
" />
<path d="M65.3714 96.5612
L50.2133 96.5612
" />
<path d="M47.8078 98.9667
L47.8078 100.8226
" />
<path d="M73.8682 96.9714
L73.8682 95.4493
" />
<path d="M66.9143 96.5612
L69.5495 93.9260
" />
<path d="M62.1835 72.5900
L63.1995 71.5740
" />
<path d="M45.2678 108.4426
L45.2678 103.3626
" />
<path d="M75.3915 75.6380
L75.3915 93.4180
" />
<path d="M73.8682 95.4493
L75.3915 93.9260
" />
<path d="M63.1995 71.5740
L71.3275 71.5740
" />
<path d="M43.1335 71.5740
L53.2935 81.7340
" />
<path d="M61.9695 79.6970
L59.6785 81.9880
" />
<path d="M53.2935 81.7340
L57.6515 81.7340
" />
<path d="M57.6515 81.7340
L57.9055 81.9880
" />
<path d="M57.9055 81.9880
L59.6785 81.9880
" />
<path d="M55.5795 57.6040
L55.0715 58.1120
" />
<path d="M43.1335 59.6360
L43.1335 61.4140
" />
<path d="M44.6575 58.1120
L43.1335 59.6360
" />
<path d="M55.5795 57.6040
L55.5795 48.4600
" />
<path d="M55.0715 58.1120
L44.6575 58.1120
" />
<path d="M55.5795 48.4600
L54.6651 47.5456
" />
<path d="M60.1515 57.6040
L55.5795 57.6040
" />
<path d="M54.6651 47.5456
L54.6651 42.1100
" />
<path d="M54.7027 110.0208
L50.5294 110.0208
" />
<path d="M44.2037 111.5448
L42.7278 110.0689
" />
<path d="M60.7486 111.4094
L56.0913 111.4094
" />
<path d="M49.0054 111.5448
L44.2037 111.5448
" />
<path d="M42.7278 110.0689
L42.7278 108.4426
" />
<path d="M54.7027 113.2643
L53.8144 114.1526
" />
<path d="M50.5294 110.0208
L49.0054 111.5448
" />
<path d="M54.7027 110.0208
L54.7027 113.2643
" />
<path d="M56.0913 111.4094
L54.7027 110.0208
" />
<path style="fill:#C83434; fill-opacity:1.0000; stroke:none;fill-rule:evenodd;"
d="M 2.8555,0.5202
2.9012,0.5730
2.9112,0.6421
2.8822,0.7057
2.8532,0.7302
2.4832,0.9570
2.4832,0.9570
2.1336,1.2110
2.1335,1.2110
1.8049,1.4917
1.8049,1.4917
1.4993,1.7974
1.4992,1.7974
1.2185,2.1260
1.2185,2.1261
0.9645,2.4757
0.9645,2.4757
0.7386,2.8442
0.7386,2.8443
0.7350,2.8514
0.6870,2.9022
0.6192,2.9190
0.5531,2.8965
0.5096,2.8418
0.5005,2.7951
0.5005,0.6245
0.5202,0.5575
0.5730,0.5117
0.6245,0.5005
2.7885,0.5005
Z" /> 
<path style="fill:#C83434; fill-opacity:1.0000; stroke:none;fill-rule:evenodd;"
d="M 79.4425,0.5202
79.4883,0.5730
79.4995,0.6245
79.4995,2.9580
79.4798,3.0251
79.4270,3.0708
79.3579,3.0808
79.2943,3.0517
79.2650,3.0143
79.1784,2.8443
79.1784,2.8442
78.9525,2.4757
78.9525,2.4757
78.9525,2.4757
78.6985,2.1260
78.6985,2.1260
78.4178,1.7974
78.4178,1.7974
78.1121,1.4917
78.1121,1.4917
77.7835,1.2110
77.7834,1.2110
77.4338,0.9570
77.4338,0.9570
77.0638,0.7302
77.0169,0.6784
77.0055,0.6095
77.0331,0.5453
77.0911,0.5063
77.1285,0.5005
79.3755,0.5005
Z" /> 
<path style="fill:#C83434; fill-opacity:1.0000; stroke:none;fill-rule:evenodd;"
d="M 79.4469,121.8006
79.4904,121.8553
79.4995,121.9020
79.4995,124.3755
79.4798,124.4425
79.4270,124.4883
79.3755,124.4995
76.8543,124.4995
76.7873,124.4798
76.7415,124.4270
76.7316,124.3579
76.7606,124.2943
76.7980,124.2650
77.0652,124.1289
77.4338,123.9030
77.7835,123.6490
78.1121,123.3683
78.4178,123.0626
78.6985,122.7340
78.9525,122.3843
79.1784,122.0157
79.2650,121.8457
79.3130,121.7949
79.3808,121.7781
Z" /> 
<path style="fill:#C83434; fill-opacity:1.0000; stroke:none;fill-rule:evenodd;"
d="M 71.6895,0.5202
71.7352,0.5730
71.7452,0.6421
71.7162,0.7057
71.6872,0.7302
71.3172,0.9570
71.3172,0.9570
70.9676,1.2110
70.9675,1.2110
70.6389,1.4917
70.6389,1.4917
70.3333,1.7974
70.3332,1.7974
70.0525,2.1260
70.0525,2.1261
69.7985,2.4757
69.7985,2.4757
69.5726,2.8442
69.5726,2.8443
69.3764,3.2294
69.2110,3.6287
69.0774,4.0398
69.0774,4.0398
68.9765,4.4601
68.9089,4.8870
68.9089,4.8870
68.8774,5.2868
68.8750,5.3179
68.8750,5.7501
68.9089,6.1810
68.9765,6.6079
69.0774,7.0282
69.0774,7.0282
69.2110,7.4393
69.3234,7.7107
69.3764,7.8386
69.5726,8.2237
69.5726,8.2237
69.5726,8.2238
69.7985,8.5923
69.7985,8.5923
70.0525,8.9419
70.0525,8.9420
70.3332,9.2706
70.3332,9.2706
70.6389,9.5763
70.6389,9.5763
70.9675,9.8570
70.9675,9.8570
71.3172,10.1110
71.3172,10.1110
71.3172,10.1110
71.6857,10.3369
71.6858,10.3369
71.6858,10.3369
72.0709,10.5331
72.4702,10.6985
72.4702,10.6985
72.5747,10.7325
72.8813,10.8321
73.3016,10.9330
73.7285,11.0006
74.1594,11.0345
74.1594,11.0345
74.5916,11.0345
74.5916,11.0345
75.0225,11.0006
75.4494,10.9330
75.8697,10.8321
76.2808,10.6985
76.6801,10.5331
77.0652,10.3369
77.4338,10.1110
77.7835,9.8570
78.1121,9.5763
78.4178,9.2706
78.6985,8.9420
78.9525,8.5923
79.1784,8.2237
79.2650,8.0537
79.3130,8.0029
79.3808,7.9861
79.4469,8.0086
79.4904,8.0633
79.4995,8.1100
79.4995,116.7500
79.4798,116.8171
79.4270,116.8628
79.3579,116.8728
79.2943,116.8437
79.2650,116.8063
79.1784,116.6363
79.1784,116.6362
78.9525,116.2677
78.9525,116.2677
78.9525,116.2677
78.6985,115.9180
78.6985,115.9180
78.4178,115.5894
78.4178,115.5894
78.1121,115.2837
78.0239,115.2084
77.7835,115.0030
77.7834,115.0030
77.5097,114.8041
77.4338,114.7490
77.4338,114.7490
77.4338,114.7490
77.0653,114.5231
77.0652,114.5231
77.0652,114.5231
77.0652,114.5231
76.6801,114.3269
76.3976,114.2099
76.2808,114.1615
75.9388,114.0504
75.8697,114.0279
75.8615,114.0260
75.7339,113.9953
75.4494,113.9270
75.3988,113.9190
75.0225,113.8594
74.5916,113.8255
74.5916,113.8255
74.1594,113.8255
74.1594,113.8255
73.7285,113.8594
73.7285,113.8594
73.3016,113.9270
73.3016,113.9270
73.3016,113.9270
73.2230,113.9459
72.8813,114.0279
72.8813,114.0279
72.8813,114.0279
72.8813,114.0279
72.4702,114.1615
72.0709,114.3269
71.6858,114.5231
71.6857,114.5231
71.3172,114.7490
71.3172,114.7490
70.9676,115.0030
70.9675,115.0030
70.6389,115.2837
70.6389,115.2837
70.3333,115.5894
70.3332,115.5894
70.0525,115.9180
70.0525,115.9181
69.7985,116.2677
69.7985,116.2677
69.5726,116.6362
69.5726,116.6363
69.3764,117.0214
69.2110,117.4207
69.0774,117.8318
69.0774,117.8318
68.9765,118.2521
68.9089,118.6790
68.9089,118.6790
68.8750,119.1099
68.8750,119.5421
68.8789,119.5920
68.9089,119.9730
68.9765,120.3999
69.0774,120.8202
69.1160,120.9388
69.2110,121.2313
69.2734,121.3820
69.3764,121.6306
69.5710,122.0126
69.5726,122.0157
69.5726,122.0158
69.7985,122.3843
69.7985,122.3843
70.0525,122.7339
70.0525,122.7340
70.2689,122.9872
70.3332,123.0626
70.6389,123.3683
70.6389,123.3683
70.9675,123.6490
70.9675,123.6490
71.3172,123.9030
71.3172,123.9030
71.3172,123.9030
71.6857,124.1289
71.6858,124.1289
71.6858,124.1289
71.9530,124.2650
72.0038,124.3130
72.0206,124.3808
71.9980,124.4469
71.9433,124.4904
71.8967,124.4995
6.8883,124.4995
6.8212,124.4798
6.7755,124.4270
6.7655,124.3579
6.7946,124.2943
6.8533,124.2565
6.8593,124.2549
6.9087,124.2431
7.3198,124.1095
7.7191,123.9441
8.1042,123.7479
8.4728,123.5220
8.8225,123.2680
9.1511,122.9873
9.4568,122.6816
9.7375,122.3530
9.9915,122.0033
10.2174,121.6347
10.4136,121.2496
10.5790,120.8503
10.7126,120.4392
10.8135,120.0189
10.8811,119.5920
10.9150,119.1611
10.9150,118.7289
10.8811,118.2980
10.8135,117.8711
10.7126,117.4508
10.5790,117.0397
10.4136,116.6404
10.2174,116.2553
10.2174,116.2552
9.9915,115.8867
9.9915,115.8867
9.9915,115.8867
9.7375,115.5370
9.7375,115.5370
9.4568,115.2084
9.4568,115.2084
9.1511,114.9027
9.1060,114.8642
8.8225,114.6220
8.8224,114.6220
8.4728,114.3680
8.4728,114.3680
8.1043,114.1421
8.1042,114.1421
8.1042,114.1421
8.1042,114.1421
7.7191,113.9459
7.5912,113.8929
7.3198,113.7805
6.9688,113.6664
6.9087,113.6469
6.9080,113.6468
6.8193,113.6255
6.4884,113.5460
6.0615,113.4784
5.6306,113.4445
5.6306,113.4445
5.1984,113.4445
5.1984,113.4445
4.7675,113.4784
4.7675,113.4784
4.3406,113.5460
4.3406,113.5460
4.3406,113.5460
4.3061,113.5543
3.9203,113.6469
3.9203,113.6469
3.9203,113.6469
3.9203,113.6469
3.5092,113.7805
3.1099,113.9459
2.7248,114.1421
2.7247,114.1421
2.3562,114.3680
2.3562,114.3680
2.0066,114.6220
2.0065,114.6220
1.6779,114.9027
1.6779,114.9027
1.3723,115.2084
1.3722,115.2084
1.0915,115.5370
1.0915,115.5371
0.8375,115.8867
0.8375,115.8867
0.7302,116.0617
0.6784,116.1086
0.6095,116.1200
0.5453,116.0924
0.5063,116.0344
0.5005,115.9969
0.5005,22.8832
11.6001,22.8832
11.6001,26.5552
11.6105,26.7324
11.6655,27.0287
11.6656,27.0287
11.7596,27.3149
11.7596,27.3149
11.8910,27.5861
11.8910,27.5861
12.0573,27.8373
12.0573,27.8373
12.0694,27.8511
12.0988,27.9145
12.1001,27.9328
12.1001,59.9104
12.0804,59.9775
12.0694,59.9921
12.0573,60.0059
12.0573,60.0059
11.8910,60.2571
11.8910,60.2571
11.7596,60.5283
11.7596,60.5283
11.6656,60.8145
11.6655,60.8145
11.6105,61.1108
11.6001,61.2880
11.6001,64.9600
11.6105,65.1372
11.6655,65.4335
11.6656,65.4335
11.7596,65.7197
11.7596,65.7197
11.8910,65.9909
11.8910,65.9909
12.0573,66.2421
12.0573,66.2421
12.0694,66.2559
12.0988,66.3193
12.1001,66.3376
12.1001,98.3152
12.0804,98.3823
12.0694,98.3969
12.0573,98.4107
12.0573,98.4107
11.8910,98.6619
11.8910,98.6619
11.7596,98.9331
11.7596,98.9331
11.6656,99.2193
11.6655,99.2193
11.6105,99.5156
11.6001,99.6928
11.6001,103.3648
11.6105,103.5420
11.6655,103.8383
11.6656,103.8383
11.7596,104.1245
11.7596,104.1245
11.8910,104.3957
11.8910,104.3957
12.0573,104.6469
12.2557,104.8737
12.4825,105.0721
12.7337,105.2384
12.7337,105.2384
12.8656,105.3023
13.0049,105.3698
13.0988,105.4007
13.2911,105.4638
13.2911,105.4638
13.2911,105.4638
13.5874,105.5189
13.7646,105.5293
16.1549,105.5293
16.2220,105.5490
16.2426,105.5656
18.4300,107.7530
18.6206,107.9436
18.8314,108.1117
19.0597,108.2552
19.2307,108.3375
19.3026,108.3722
19.3026,108.3722
19.5571,108.4612
19.5571,108.4612
19.8200,108.5212
20.0879,108.5514
20.0879,108.5514
20.0879,108.5514
20.3575,108.5514
34.6070,108.5514
34.6741,108.5711
34.6947,108.5877
40.9111,114.8041
40.9443,114.8642
40.9591,114.9291
40.9591,114.9291
41.0630,115.2260
41.1995,115.5094
41.1995,115.5094
41.3668,115.7757
41.4553,115.8867
41.5432,115.9969
41.5629,116.0216
41.7854,116.2441
42.0313,116.4402
42.2976,116.6075
42.5810,116.7440
42.8779,116.8479
42.8779,116.8479
42.8779,116.8479
42.8969,116.8522
42.9428,116.8627
43.0029,116.8959
47.3209,121.2139
47.5317,121.3820
47.6595,121.4624
47.7396,121.5127
47.7600,121.5255
47.9783,121.6306
47.9783,121.6306
48.0029,121.6425
48.0029,121.6425
48.2574,121.7315
48.2574,121.7315
48.5203,121.7915
48.7882,121.8217
48.7882,121.8217
48.7882,121.8217
49.0578,121.8217
63.8923,121.8217
63.9582,121.8407
64.0146,121.8761
64.2980,122.0126
64.5949,122.1165
64.9016,122.1865
65.2141,122.2217
65.2141,122.2217
65.2141,122.2217
65.5287,122.2217
65.5287,122.2217
65.8412,122.1865
66.1479,122.1165
66.4448,122.0126
66.7282,121.8761
66.9945,121.7088
67.2404,121.5127
67.4629,121.2902
67.6590,121.0443
67.8263,120.7780
67.9628,120.4946
68.0667,120.1977
68.1367,119.8910
68.1719,119.5785
68.1719,119.2639
68.1367,118.9514
68.0667,118.6447
67.9628,118.3478
67.8263,118.0644
67.7909,118.0080
67.7719,117.9421
67.7719,112.2652
67.7719,112.2652
67.7417,111.9973
67.7417,111.9973
67.6817,111.7344
67.5927,111.4799
67.4757,111.2370
67.4757,111.2370
67.4757,111.2370
67.4757,111.2370
67.4742,111.2339
67.4749,111.2335
67.4605,111.1688
67.4845,111.1032
67.4872,111.0997
67.6590,110.8843
67.8263,110.6180
67.9628,110.3346
68.0667,110.0377
68.1367,109.7310
68.1719,109.4185
68.1719,109.1039
68.1367,108.7914
68.0667,108.4847
67.9864,108.2552
67.9628,108.1878
67.9609,108.1839
67.8940,108.0450
67.8827,107.9761
67.8940,107.9374
67.9628,107.7946
68.0667,107.4977
68.1367,107.1910
68.1719,106.8785
68.1719,106.5639
68.1367,106.2514
68.0667,105.9447
67.9628,105.6478
67.8742,105.4638
67.8263,105.3644
67.8263,105.3644
67.6590,105.0981
67.4629,104.8522
67.2404,104.6297
66.9945,104.4336
66.7585,104.2853
66.7122,104.2330
66.7015,104.1639
66.7299,104.1001
66.7883,104.0617
66.8244,104.0563
70.8412,104.0563
70.8412,104.0563
71.1091,104.0261
71.3720,103.9661
71.6265,103.8771
71.6665,103.8578
71.6733,103.8545
71.7423,103.8431
71.8064,103.8709
71.8148,103.8785
71.9992,104.0629
72.2451,104.2590
72.5114,104.4263
72.7948,104.5628
73.0917,104.6667
73.3984,104.7367
73.7109,104.7719
73.7109,104.7719
73.7109,104.7719
74.0255,104.7719
74.0255,104.7719
74.3380,104.7367
74.6447,104.6667
74.9416,104.5628
75.2250,104.4263
75.4913,104.2590
75.7372,104.0629
75.9597,103.8404
76.1558,103.5945
76.3231,103.3282
76.4596,103.0448
76.5635,102.7479
76.6335,102.4412
76.6687,102.1287
76.6687,101.8141
76.6335,101.5016
76.5635,101.1949
76.4596,100.8980
76.3231,100.6146
76.1558,100.3483
75.9597,100.1024
75.7372,99.8799
75.4913,99.6838
75.3203,99.5764
75.2741,99.5241
75.2634,99.4550
75.2918,99.3912
75.3203,99.3664
75.4913,99.2590
75.7372,99.0629
75.9597,98.8404
76.1558,98.5945
76.3231,98.3282
76.4596,98.0448
76.5635,97.7479
76.6335,97.4412
76.6687,97.1287
76.6687,96.9981
76.6884,96.9311
76.7412,96.8853
76.7452,96.8836
76.7829,96.8680
77.0646,96.7174
77.3302,96.5400
77.5770,96.3374
77.8029,96.1115
78.0055,95.8647
78.1829,95.5991
78.3335,95.3174
78.4557,95.0224
78.5484,94.7168
78.6107,94.4035
78.6420,94.0857
78.6420,93.7663
78.6107,93.4485
78.5484,93.1352
78.4557,92.8296
78.3335,92.5346
78.1829,92.2529
78.1429,92.1931
78.0055,91.9874
78.0055,91.9874
78.0055,91.9873
77.9870,91.9648
77.8201,91.7615
77.7928,91.6972
77.7920,91.6829
77.7920,75.5032
77.7920,75.5032
77.7883,75.4708
77.7618,75.2353
77.7159,75.0341
77.7018,74.9724
77.6128,74.7179
77.5271,74.5401
77.5271,74.5401
77.4958,74.4750
77.4958,74.4750
77.3523,74.2467
77.1842,74.0359
76.9936,73.8453
72.9296,69.7813
72.7188,69.6132
72.4905,69.4697
72.4905,69.4697
72.3130,69.3842
72.2611,69.3374
72.2428,69.2700
72.2638,69.2033
72.3176,69.1587
72.3668,69.1485
73.7483,69.1485
73.7483,69.1485
74.0162,69.1183
74.2791,69.0583
74.5336,68.9693
74.7765,68.8523
75.0048,68.7088
75.2156,68.5407
75.4062,68.3501
76.1682,67.5881
76.3363,67.3773
76.4033,67.2707
76.4798,67.1490
76.5968,66.9061
76.6276,66.8180
76.6858,66.6516
76.7458,66.3887
76.7760,66.1208
76.7760,65.8512
76.7760,65.3432
76.7760,40.1972
76.7458,39.9293
76.7178,39.8065
76.6858,39.6664
76.5968,39.4119
76.5107,39.2331
76.4798,39.1690
76.3363,38.9407
76.1682,38.7299
75.9776,38.5393
75.2156,37.7773
75.0048,37.6092
75.0048,37.6092
74.9889,37.5992
74.8607,37.5186
74.8144,37.4663
74.8038,37.3972
74.8321,37.3334
74.8390,37.3260
76.7183,35.4466
76.9365,35.1808
77.1276,34.8948
77.2897,34.5915
77.4214,34.2737
77.5212,33.9446
77.5883,33.6073
77.6220,33.2650
77.6220,18.5700
77.5883,18.2278
77.5212,17.8904
77.4214,17.5613
77.2897,17.2435
77.1841,17.0459
77.1276,16.9402
76.9365,16.6542
76.8045,16.4934
76.7183,16.3884
76.7183,16.3884
76.7183,16.3884
76.4727,16.1428
76.4727,16.1427
74.9511,14.6212
74.6853,14.4030
74.6853,14.4030
74.6853,14.4030
74.5894,14.3389
74.3993,14.2119
74.3993,14.2119
74.0960,14.0498
74.0960,14.0498
74.0848,14.0451
74.0029,14.0112
73.7782,13.9181
73.4491,13.8183
73.1117,13.7512
73.1118,13.7512
72.8540,13.7258
72.7695,13.7175
72.7695,13.7175
69.2728,13.7175
69.2058,13.6978
69.1851,13.6812
61.3621,5.8582
61.0963,5.6400
61.0963,5.6400
61.0963,5.6400
61.0907,5.6363
60.8103,5.4489
60.8103,5.4489
60.5070,5.2868
60.5070,5.2868
60.1892,5.1551
59.8601,5.0553
59.5227,4.9882
59.5227,4.9882
59.2650,4.9628
59.1805,4.9545
31.6928,4.9545
31.6148,4.9622
31.3505,4.9882
31.0132,5.0553
30.6841,5.1551
30.3663,5.2868
30.3663,5.2868
30.0630,5.4489
30.0630,5.4489
29.7770,5.6400
29.7770,5.6400
29.5112,5.8582
14.6870,20.6824
14.6256,20.7159
14.5993,20.7187
13.7646,20.7187
13.5874,20.7291
13.2911,20.7842
13.2911,20.7842
13.0049,20.8782
13.0049,20.8782
12.7337,21.0096
12.7337,21.0096
12.4825,21.1759
12.2557,21.3743
12.0573,21.6011
11.8910,21.8523
11.8910,21.8523
11.7596,22.1235
11.7596,22.1235
11.6656,22.4097
11.6655,22.4097
11.6105,22.7060
11.6001,22.8832
0.5005,22.8832
0.5005,8.2729
0.5202,8.2058
0.5730,8.1601
0.6421,8.1501
0.7057,8.1792
0.7350,8.2166
0.7384,8.2232
0.7386,8.2237
0.7386,8.2238
0.9645,8.5923
0.9645,8.5923
1.2185,8.9419
1.2185,8.9420
1.4992,9.2706
1.4992,9.2706
1.8049,9.5763
1.8049,9.5763
2.1335,9.8570
2.1335,9.8570
2.4832,10.1110
2.4832,10.1110
2.4832,10.1110
2.8517,10.3369
2.8518,10.3369
2.8518,10.3369
3.2369,10.5331
3.6362,10.6985
3.6362,10.6985
3.7407,10.7325
4.0473,10.8321
4.4676,10.9330
4.8945,11.0006
5.3254,11.0345
5.3254,11.0345
5.7576,11.0345
5.7576,11.0345
6.1885,11.0006
6.6154,10.9330
7.0357,10.8321
7.4468,10.6985
7.8461,10.5331
8.2312,10.3369
8.5998,10.1110
8.9495,9.8570
9.2781,9.5763
9.5838,9.2706
9.8645,8.9420
10.1185,8.5923
10.3444,8.2237
10.5406,7.8386
10.7060,7.4393
10.8396,7.0282
10.9405,6.6079
11.0081,6.1810
11.0420,5.7501
11.0420,5.3179
11.0081,4.8870
10.9405,4.4601
10.8396,4.0398
10.7060,3.6287
10.5406,3.2294
10.3444,2.8443
10.3428,2.8418
10.1185,2.4757
10.1185,2.4757
10.1185,2.4757
9.8645,2.1260
9.8645,2.1260
9.5838,1.7974
9.5838,1.7974
9.2781,1.4917
9.2781,1.4917
8.9495,1.2110
8.9494,1.2110
8.5998,0.9570
8.5998,0.9570
8.2298,0.7302
8.1829,0.6784
8.1715,0.6095
8.1991,0.5453
8.2571,0.5063
8.2945,0.5005
71.6225,0.5005
Z" /> 
<path style="fill:#C83434; fill-opacity:1.0000; stroke:none;fill-rule:evenodd;"
d="M 64.1112,18.8369
64.1416,18.8766
64.2619,19.1249
64.4282,19.3761
64.6266,19.6029
64.7361,19.6986
64.8534,19.8013
64.9404,19.8589
64.9854,19.9123
64.9944,19.9816
64.9646,20.0447
64.9596,20.0499
64.7408,20.2688
64.5279,20.5358
64.3462,20.8249
64.1980,21.1326
64.1980,21.1326
64.1470,21.2783
64.1063,21.3351
64.0414,21.3608
63.9728,21.3474
63.9224,21.2990
63.9060,21.2373
63.9060,18.9306
63.9257,18.8636
63.9785,18.8178
64.0476,18.8079
Z" /> 
<path style="fill:#C83434; fill-opacity:1.0000; stroke:none;fill-rule:evenodd;"
d="M 70.5531,29.7475
70.6040,29.7954
70.6210,29.8581
70.6210,31.5917
70.6013,31.6587
70.5847,31.6794
66.3197,35.9444
66.2584,35.9778
66.1887,35.9729
66.1327,35.9310
66.1083,35.8655
66.1080,35.8567
66.1080,32.4877
66.1277,32.4206
66.1443,32.4000
68.0368,30.5075
68.0981,30.4740
68.1106,30.4720
68.1479,30.4678
68.3501,30.4216
68.3777,30.4185
68.7023,30.4185
68.7023,30.4185
69.0416,30.3803
69.3745,30.3043
69.6969,30.1915
69.7452,30.1682
70.0046,30.0433
70.0046,30.0433
70.0046,30.0433
70.2937,29.8616
70.4197,29.7612
70.4844,29.7348
Z" /> 
<path style="fill:#C83434; fill-opacity:1.0000; stroke:none;fill-rule:evenodd;"
d="M 57.5742,11.9752
57.5949,11.9918
59.2359,13.6328
59.2693,13.6941
59.2644,13.7638
59.2225,13.8198
59.1570,13.8442
59.1482,13.8445
55.4075,13.8445
55.3295,13.8522
55.0653,13.8782
54.7279,13.9453
54.3988,14.0451
54.0810,14.1768
54.0810,14.1768
53.7777,14.3389
53.7777,14.3389
53.4917,14.5300
53.4917,14.5300
53.2259,14.7482
52.9827,14.9914
52.7645,15.2572
52.7645,15.2572
52.5734,15.5432
52.5734,15.5432
52.4113,15.8465
52.4113,15.8465
52.2797,16.1643
52.1798,16.4934
52.1127,16.8307
52.1019,16.9402
52.0790,17.1730
52.0790,17.5170
52.0834,17.5613
52.1127,17.8592
52.1798,18.1966
52.2797,18.5257
52.3727,18.7504
52.3965,18.8079
52.4113,18.8435
52.4113,18.8435
52.5734,19.1468
52.5734,19.1468
52.7645,19.4328
52.7645,19.4328
52.9827,19.6986
53.2259,19.9418
53.2259,19.9418
53.2259,19.9418
53.4917,20.1600
53.7777,20.3511
53.7777,20.3511
53.7777,20.3511
54.0810,20.5132
54.0810,20.5132
54.0810,20.5132
54.3988,20.6448
54.7279,20.7447
55.0653,20.8118
55.4075,20.8455
56.7810,20.8455
56.8480,20.8652
56.8938,20.9180
56.9050,20.9695
56.9050,25.5775
56.9387,25.9198
57.0058,26.2571
57.1057,26.5862
57.2373,26.9040
57.2373,26.9040
57.3994,27.2073
57.3994,27.2073
57.5905,27.4933
57.5905,27.4933
57.8087,27.7591
59.6464,29.5968
59.6464,29.5968
59.6464,29.5968
59.9122,29.8150
59.9767,29.8581
60.1982,30.0061
60.1982,30.0061
60.1982,30.0061
60.2993,30.0601
60.5015,30.1682
60.5015,30.1682
60.5015,30.1682
60.8193,30.2998
61.1484,30.3997
61.1484,30.3997
61.1484,30.3997
61.3642,30.4426
61.4262,30.4750
61.4607,30.5357
61.4571,30.6052
61.3972,30.7764
61.3573,30.9512
61.3372,31.0393
61.3070,31.3072
61.3070,36.2846
61.2873,36.3516
61.2345,36.3973
61.1654,36.4073
61.1355,36.3991
60.8242,36.2702
60.4951,36.1703
60.1577,36.1032
60.1578,36.1032
59.9000,36.0778
59.8155,36.0695
59.4715,36.0695
59.3935,36.0772
59.1293,36.1032
58.7919,36.1703
58.4628,36.2702
58.1450,36.4018
58.1450,36.4018
57.8586,36.5549
57.8002,36.5695
57.7896,36.5695
57.7226,36.5498
57.6768,36.4970
57.6656,36.4455
57.6656,34.9386
57.6656,34.9386
57.6607,34.8948
57.6461,34.7656
57.6279,34.6037
57.6214,34.5753
57.5529,34.2751
57.5524,34.2737
57.5252,34.1959
57.4416,33.9570
57.3864,33.8425
57.2954,33.6534
57.1798,33.4695
57.1160,33.3681
57.0309,33.2612
56.9059,33.1046
56.8971,33.0958
56.8661,33.0441
56.7719,32.7333
56.6402,32.4155
56.4781,32.1122
56.2870,31.8262
56.0688,31.5604
56.0688,31.5604
56.0688,31.5604
55.8256,31.3172
55.5598,31.0990
55.5598,31.0990
55.5598,31.0990
55.2738,30.9079
55.2738,30.9079
55.2738,30.9079
54.9705,30.7458
54.9705,30.7458
54.6527,30.6141
54.3942,30.5357
54.3236,30.5143
54.3236,30.5143
54.3236,30.5143
54.2575,30.5012
54.2203,30.4938
54.1584,30.4614
54.1238,30.4007
54.1276,30.3309
54.1568,30.2845
54.1898,30.2515
54.4704,29.9170
54.7209,29.5593
54.9392,29.1812
55.1238,28.7854
55.2731,28.3751
55.3861,27.9533
55.4619,27.5233
55.5000,27.0883
55.5000,26.6517
55.4619,26.2167
55.3861,25.7867
55.2731,25.3649
55.1238,24.9546
55.1057,24.9157
54.9392,24.5588
54.9392,24.5588
54.9101,24.5084
54.7209,24.1807
54.7209,24.1807
54.7209,24.1807
54.4704,23.8230
54.1898,23.4885
53.8810,23.1797
53.8349,23.1410
53.7883,23.1019
53.5465,22.8991
53.1888,22.6486
53.1888,22.6486
53.1888,22.6486
53.0765,22.5837
52.8107,22.4303
52.8107,22.4303
52.4149,22.2457
52.4149,22.2457
52.4149,22.2457
52.2608,22.1896
52.0046,22.0964
51.5828,21.9834
51.5828,21.9834
51.5828,21.9834
51.5828,21.9834
51.5828,21.9834
51.1528,21.9076
50.7178,21.8695
50.7178,21.8695
50.2812,21.8695
50.2812,21.8695
49.8462,21.9076
49.8462,21.9076
49.4162,21.9834
49.4162,21.9834
49.0761,22.0745
49.0062,22.0728
48.9484,22.0337
48.9209,21.9694
48.9200,21.9547
48.9200,17.1730
48.8863,16.8307
48.8192,16.4934
48.8192,16.4934
48.8192,16.4934
48.7194,16.1643
48.5877,15.8465
48.4256,15.5432
48.2345,15.2572
48.0163,14.9914
48.0163,14.9914
48.0163,14.9914
47.7731,14.7482
47.5073,14.5300
47.5073,14.5300
47.5073,14.5300
47.2213,14.3389
47.2213,14.3389
47.2213,14.3389
46.9180,14.1768
46.9180,14.1768
46.6002,14.0451
46.2711,13.9453
45.9337,13.8782
45.9337,13.8782
45.6760,13.8528
45.5915,13.8445
45.2475,13.8445
45.1695,13.8522
44.9053,13.8782
44.5679,13.9453
44.2388,14.0451
43.9210,14.1768
43.9210,14.1768
43.6177,14.3389
43.6177,14.3389
43.3317,14.5300
43.3317,14.5300
43.0659,14.7482
42.8227,14.9914
42.6045,15.2572
42.6045,15.2572
42.4134,15.5432
42.4134,15.5432
42.2513,15.8465
42.2513,15.8465
42.1197,16.1643
42.0198,16.4934
41.9527,16.8307
41.9190,17.1730
41.9190,32.6051
41.8993,32.6722
41.8465,32.7179
41.7774,32.7279
41.7475,32.7197
41.6899,32.6958
41.3843,32.6031
41.0710,32.5408
41.0710,32.5408
40.8316,32.5172
40.7532,32.5095
40.4338,32.5095
40.3613,32.5166
40.1160,32.5408
39.8027,32.6031
39.4971,32.6958
39.2021,32.8180
39.2020,32.8180
38.9233,32.9670
38.8549,32.9813
38.7897,32.9563
38.7772,32.9453
29.4678,23.6360
29.4368,23.5843
29.3718,23.3698
29.2214,23.0067
29.1152,22.8081
29.0361,22.6601
29.0361,22.6601
29.0361,22.6601
28.8177,22.3332
28.5683,22.0294
28.5683,22.0294
28.5683,22.0294
28.2904,21.7515
27.9866,21.5021
27.9866,21.5021
27.9866,21.5021
27.6597,21.2837
27.6597,21.2837
27.6597,21.2837
27.3131,21.0984
27.3131,21.0984
26.9500,20.9480
26.5738,20.8339
26.5738,20.8339
26.1883,20.7572
25.8937,20.7282
25.7971,20.7187
25.4041,20.7187
25.3159,20.7274
25.0129,20.7572
24.7898,20.8016
24.7202,20.7954
24.6651,20.7525
24.6418,20.6866
24.6579,20.6186
24.6779,20.5923
33.2784,11.9918
33.3398,11.9583
33.3661,11.9555
57.5072,11.9555
Z" /> 
<path style="fill:#C83434; fill-opacity:1.0000; stroke:none;fill-rule:evenodd;"
d="M 63.2956,44.4782
63.3048,44.4803
63.5727,44.5105
63.5727,44.5105
63.5727,44.5105
63.7200,44.5105
63.7870,44.5302
63.8328,44.5830
63.8440,44.6345
63.8440,44.8208
63.8822,45.1601
63.8822,45.1601
63.9582,45.4930
63.9582,45.4931
64.0710,45.8154
64.0710,45.8154
64.1848,46.0517
64.1962,46.1206
64.1685,46.1848
64.1105,46.2237
64.0731,46.2295
63.9388,46.2295
63.8718,46.2098
63.8511,46.1932
63.1803,45.5224
63.1468,45.4610
63.1440,45.4347
63.1440,44.5991
63.1637,44.5321
63.2165,44.4863
63.2856,44.4764
Z" /> 
<path style="fill:#C83434; fill-opacity:1.0000; stroke:none;fill-rule:evenodd;"
d="M 58.1852,50.4286
58.1917,50.4346
60.0839,52.3268
60.0839,52.3268
60.0839,52.3268
60.3497,52.5450
60.6357,52.7361
60.9390,52.8982
61.2568,53.0298
61.5859,53.1297
61.7152,53.1554
61.7771,53.1878
61.8117,53.2485
61.8150,53.2770
61.8150,55.1174
61.7953,55.1845
61.7425,55.2302
61.6734,55.2402
61.6250,55.2224
61.5083,55.1491
61.2249,55.0126
60.9280,54.9087
60.9280,54.9087
60.6213,54.8387
60.6213,54.8387
60.3088,54.8035
60.3088,54.8035
59.9942,54.8035
59.9942,54.8035
59.6817,54.8387
59.6817,54.8387
59.3750,54.9087
59.3750,54.9087
59.0781,55.0126
58.7947,55.1491
58.7495,55.1775
58.7384,55.1845
58.7383,55.1845
58.6724,55.2035
58.1040,55.2035
58.0370,55.1838
57.9912,55.1310
57.9800,55.0795
57.9800,50.5223
57.9997,50.4553
58.0525,50.4095
58.1216,50.3996
Z" /> 
<path style="fill:#C83434; fill-opacity:1.0000; stroke:none;fill-rule:evenodd;"
d="M 51.6004,43.0746
51.6511,43.1227
51.6676,43.1761
51.6799,43.3479
51.7407,43.6275
51.8407,43.8957
51.9779,44.1468
51.9779,44.1468
52.1494,44.3759
52.1494,44.3759
52.1494,44.3759
52.2283,44.4548
52.2618,44.5161
52.2646,44.5425
52.2646,47.4139
52.2449,47.4810
52.1921,47.5267
52.1230,47.5367
52.0982,47.5305
52.0046,47.4964
51.5828,47.3834
51.5828,47.3834
51.5828,47.3834
51.5828,47.3834
51.5828,47.3834
51.1528,47.3076
50.7178,47.2695
50.7178,47.2695
50.2812,47.2695
50.2812,47.2695
49.8462,47.3076
49.8462,47.3076
49.4162,47.3834
49.4162,47.3834
48.9944,47.4964
48.5841,47.6457
48.5841,47.6457
48.1883,47.8303
48.1883,47.8303
47.8102,48.0486
47.8102,48.0486
47.4525,48.2991
47.1180,48.5797
46.8092,48.8885
46.5286,49.2230
46.2781,49.5807
46.2781,49.5807
46.0598,49.9588
46.0598,49.9588
45.8752,50.3545
45.8752,50.3546
45.7259,50.7649
45.6129,51.1867
45.6129,51.1867
45.5371,51.6167
45.5371,51.6167
45.4990,52.0517
45.4990,52.4883
45.5371,52.9233
45.5371,52.9233
45.6129,53.3533
45.6129,53.3533
45.7259,53.7751
45.8752,54.1854
45.8752,54.1854
46.0598,54.5812
46.0598,54.5812
46.2781,54.9593
46.2781,54.9593
46.2781,54.9593
46.5286,55.3170
46.6886,55.5078
46.7167,55.5718
46.7056,55.6408
46.6590,55.6929
46.5937,55.7115
44.5227,55.7115
44.2548,55.7417
44.2548,55.7417
43.9919,55.8017
43.9919,55.8017
43.7374,55.8907
43.4945,56.0077
43.2662,56.1512
43.2662,56.1512
43.2662,56.1512
43.1773,56.2221
43.0554,56.3193
41.5314,57.8433
41.3408,58.0339
41.1727,58.2447
41.0292,58.4730
40.9932,58.5477
40.9932,58.5477
40.9122,58.7159
40.9122,58.7159
40.8232,58.9704
40.8232,58.9704
40.7859,59.1339
40.7632,59.2333
40.7330,59.5012
40.7330,59.9349
40.7140,60.0008
40.6786,60.0572
40.6650,60.0854
40.6182,60.1372
40.5508,60.1555
40.4841,60.1345
40.4395,60.0808
40.4293,60.0316
40.4293,50.0384
40.4490,49.9713
40.4656,49.9507
41.1933,49.2230
42.3862,48.0301
42.5543,47.8193
42.6288,47.7008
42.6978,47.5910
42.8148,47.3481
42.8504,47.2464
42.9038,47.0936
42.9638,46.8307
42.9940,46.5628
42.9940,46.3851
43.0137,46.3181
43.0221,46.3065
43.0853,46.2295
43.2075,46.0807
43.3849,45.8151
43.5355,45.5334
43.6577,45.2384
43.7504,44.9328
43.8127,44.6195
43.8440,44.3017
43.8440,43.9823
43.8127,43.6645
43.7504,43.3512
43.7162,43.2387
43.7156,43.1688
43.7529,43.1097
43.8162,43.0801
43.8349,43.0787
51.3580,43.0787
51.3580,43.0787
51.5318,43.0616
Z" /> 
<path style="fill:#C83434; fill-opacity:1.0000; stroke:none;fill-rule:evenodd;"
d="M 48.2819,60.5322
48.3276,60.5850
48.3376,60.6541
48.3085,60.7177
48.3025,60.7242
48.0095,61.0172
47.9482,61.0507
47.9218,61.0535
47.4960,61.0535
47.2821,61.0688
47.0025,61.1296
46.7343,61.2296
46.4832,61.3668
46.4832,61.3668
46.2541,61.5383
46.2541,61.5383
46.1457,61.6467
46.0844,61.6802
46.0147,61.6752
45.9587,61.6333
45.9343,61.5678
45.9340,61.5590
45.9340,61.2567
45.9340,61.2567
45.9292,61.2139
45.8988,60.9442
45.8902,60.9066
45.8349,60.6641
45.8391,60.5944
45.8804,60.5380
45.9456,60.5129
45.9558,60.5125
48.2148,60.5125
Z" /> 
<path style="fill:#C83434; fill-opacity:1.0000; stroke:none;fill-rule:evenodd;"
d="M 69.6302,52.7004
69.6769,52.7524
69.6890,52.8059
69.6890,54.7747
69.6693,54.8417
69.6165,54.8875
69.5926,54.8956
69.5350,54.9087
69.2381,55.0126
68.9547,55.1491
68.6884,55.3164
68.4425,55.5125
68.2200,55.7350
68.0239,55.9809
67.8566,56.2472
67.7201,56.5306
67.6162,56.8275
67.6162,56.8275
67.5462,57.1342
67.5462,57.1342
67.5110,57.4467
67.5110,57.7613
67.5462,58.0738
67.5462,58.0738
67.6162,58.3805
67.6162,58.3805
67.7201,58.6774
67.8566,58.9608
67.8566,58.9608
68.0239,59.2271
68.2200,59.4730
68.4425,59.6955
68.6884,59.8916
68.9547,60.0589
69.2381,60.1954
69.5350,60.2993
69.5926,60.3124
69.6536,60.3465
69.6864,60.4082
69.6890,60.4333
69.6890,60.7065
69.6693,60.7735
69.6165,60.8193
69.6010,60.8251
69.4444,60.8726
69.4444,60.8726
69.1494,60.9948
69.1493,60.9948
68.8677,61.1454
68.8677,61.1454
68.6022,61.3228
68.6021,61.3228
68.3553,61.5254
68.1294,61.7513
67.9268,61.9981
67.9268,61.9982
67.7494,62.2637
67.7494,62.2637
67.6081,62.5281
67.5591,62.5779
67.4910,62.5934
67.4253,62.5696
67.3937,62.5356
67.3634,62.4874
67.2651,62.3309
67.0690,62.0850
66.8465,61.8625
66.6006,61.6664
66.5230,61.6176
66.4767,61.5653
66.4660,61.4962
66.4719,61.4717
66.5258,61.3176
66.5858,61.0547
66.6160,60.7868
66.6160,53.3545
66.6357,53.2875
66.6885,53.2417
66.7400,53.2305
67.8165,53.2305
67.8165,53.2305
68.1588,53.1968
68.4961,53.1297
68.8252,53.0298
69.1430,52.8982
69.4463,52.7361
69.4961,52.7028
69.5628,52.6819
Z" /> 
<path style="fill:#C83434; fill-opacity:1.0000; stroke:none;fill-rule:evenodd;"
d="M 68.2058,76.7074
68.2448,76.7654
68.2474,76.7752
68.2559,76.8123
68.2559,76.8123
68.2671,76.8445
68.2989,76.9353
68.3074,76.9595
68.3110,77.0293
68.2762,77.0899
68.2142,77.1221
68.1447,77.1157
68.1366,77.1122
68.1229,77.1056
68.1229,77.1056
67.8455,77.0085
67.7888,76.9678
67.7630,76.9029
67.7765,76.8343
67.8249,76.7839
67.8455,76.7745
68.0429,76.7054
68.0727,76.6910
68.1417,76.6797
Z" /> 
<path style="fill:#C83434; fill-opacity:1.0000; stroke:none;fill-rule:evenodd;"
d="M 40.6345,62.7027
40.6650,62.7426
40.6786,62.7708
40.6786,62.7708
40.8459,63.0371
41.0420,63.2830
41.2645,63.5055
41.5104,63.7016
41.7767,63.8689
42.0601,64.0054
42.3570,64.1093
42.6637,64.1793
42.9762,64.2145
42.9762,64.2145
42.9762,64.2145
43.2908,64.2145
43.2908,64.2145
43.6033,64.1793
43.9100,64.1093
44.2069,64.0054
44.4903,63.8689
44.7566,63.7016
45.0025,63.5055
45.2250,63.2830
45.3461,63.1312
45.4032,63.0911
45.4731,63.0882
45.5333,63.1236
45.5649,63.1859
45.5670,63.2085
45.5670,64.9254
45.5823,65.1394
45.6431,65.4190
45.6431,65.4190
45.6431,65.4190
45.7021,65.5771
45.7431,65.6872
45.8803,65.9383
45.8803,65.9383
46.0518,66.1674
46.0518,66.1674
46.2541,66.3697
46.2541,66.3697
46.4832,66.5412
46.4832,66.5412
46.7343,66.6784
46.7343,66.6784
46.7343,66.6784
46.7343,66.6784
47.0025,66.7784
47.0025,66.7784
47.0025,66.7784
47.2821,66.8392
47.2821,66.8392
47.2821,66.8392
47.4961,66.8545
49.4389,66.8545
49.6529,66.8392
49.7503,66.8180
49.9325,66.7784
49.9325,66.7784
49.9325,66.7784
50.0670,66.7282
50.1367,66.7232
50.1513,66.7274
50.2033,66.7455
50.2033,66.7455
50.5209,66.8180
50.8446,66.8545
50.8446,66.8545
50.8446,66.8545
51.1704,66.8545
51.1704,66.8545
51.4941,66.8180
51.8117,66.7455
52.1192,66.6379
52.4127,66.4966
52.6086,66.3735
52.6746,66.3545
53.3384,66.3545
53.4043,66.3735
53.4607,66.4089
53.7441,66.5454
54.0410,66.6493
54.3477,66.7193
54.6602,66.7545
54.6602,66.7545
54.6602,66.7545
54.9748,66.7545
54.9748,66.7545
55.2873,66.7193
55.5940,66.6493
55.8909,66.5454
56.1743,66.4089
56.4406,66.2416
56.6865,66.0455
56.9090,65.8230
57.1051,65.5771
57.2724,65.3108
57.4089,65.0274
57.5128,64.7305
57.5828,64.4238
57.6180,64.1113
57.6180,63.7967
57.5828,63.4842
57.5369,63.2830
57.5189,63.2041
57.5231,63.1344
57.5644,63.0780
57.6296,63.0529
57.6398,63.0525
62.1553,63.0525
62.2223,63.0722
62.2680,63.1250
62.2780,63.1941
62.2761,63.2041
62.2122,63.4842
62.2122,63.4842
62.1770,63.7967
62.1770,64.1113
62.1881,64.2096
62.1760,64.2784
62.1287,64.3298
62.0649,64.3475
61.8347,64.3475
61.5668,64.3777
61.5668,64.3777
61.3039,64.4377
61.3039,64.4377
61.0494,64.5267
61.0494,64.5267
60.8065,64.6437
60.6731,64.7276
60.5782,64.7872
60.3674,64.9553
57.6768,67.6459
57.5087,67.8567
57.3652,68.0850
57.3063,68.2073
57.3063,68.2073
57.2482,68.3279
57.2482,68.3279
57.1592,68.5824
57.1592,68.5824
57.1075,68.8087
57.0992,68.8453
57.0992,68.8453
57.0690,69.1132
57.0690,72.6349
57.0500,72.7008
57.0146,72.7572
56.8781,73.0406
56.7742,73.3375
56.7742,73.3375
56.7042,73.6442
56.7042,73.6442
56.6690,73.9567
56.6690,74.2713
56.7042,74.5838
56.7042,74.5838
56.7742,74.8905
56.7742,74.8905
56.8781,75.1874
57.0146,75.4708
57.0146,75.4708
57.0349,75.5032
57.0500,75.5272
57.0690,75.5931
57.0690,78.1542
57.0500,78.2202
56.9746,78.3402
56.8381,78.6236
56.7342,78.9205
56.7342,78.9205
56.6642,79.2272
56.6637,79.2303
56.6330,79.2931
56.5733,79.3293
56.5414,79.3335
54.3392,79.3335
54.2721,79.3138
54.2515,79.2972
45.8768,70.9225
45.8436,70.8624
45.8288,70.7975
45.8288,70.7975
45.8288,70.7975
45.7249,70.5006
45.5884,70.2172
45.4211,69.9509
45.2250,69.7050
45.0025,69.4825
44.7566,69.2864
44.4903,69.1191
44.4903,69.1191
44.2069,68.9826
43.9100,68.8787
43.9100,68.8787
43.6033,68.8087
43.6033,68.8087
43.2908,68.7735
43.2908,68.7735
42.9762,68.7735
42.9762,68.7735
42.6637,68.8087
42.6637,68.8087
42.3570,68.8787
42.3570,68.8787
42.0601,68.9826
41.7767,69.1191
41.5104,69.2864
41.2645,69.4825
41.0420,69.7050
40.8459,69.9509
40.6786,70.2172
40.6650,70.2454
40.6182,70.2972
40.5508,70.3155
40.4841,70.2945
40.4395,70.2408
40.4293,70.1916
40.4293,62.7964
40.4490,62.7294
40.5018,62.6837
40.5709,62.6737
Z" /> 
<path style="fill:#C83434; fill-opacity:1.0000; stroke:none;fill-rule:evenodd;"
d="M 69.8762,80.5268
69.9266,80.5752
69.9430,80.6369
69.9430,84.7925
69.9233,84.8595
69.8705,84.9053
69.8190,84.9165
68.5286,84.9165
68.4627,84.8975
68.4063,84.8621
68.1229,84.7256
67.8260,84.6217
67.8260,84.6217
67.5193,84.5517
67.5193,84.5517
67.2068,84.5165
67.2068,84.5165
66.8922,84.5165
66.8922,84.5165
66.5797,84.5517
66.5797,84.5517
66.2730,84.6217
66.2730,84.6217
65.9761,84.7256
65.9761,84.7256
65.8333,84.7944
65.7644,84.8057
65.7257,84.7944
65.7218,84.7925
65.6275,84.7471
65.5757,84.7003
65.5573,84.6328
65.5784,84.5662
65.5936,84.5477
66.3022,83.8391
66.4703,83.6283
66.4943,83.5901
66.6138,83.4000
66.7308,83.1571
66.7732,83.0358
66.8179,82.9081
66.8179,82.9081
66.8179,82.9081
66.8198,82.9026
66.8798,82.6397
66.8834,82.6076
66.9105,82.5432
66.9681,82.5036
67.0067,82.4975
67.2068,82.4975
67.2068,82.4975
67.5193,82.4623
67.8260,82.3923
68.1229,82.2884
68.4063,82.1519
68.6726,81.9846
68.9185,81.7885
69.1410,81.5660
69.3371,81.3201
69.5044,81.0538
69.6409,80.7704
69.7020,80.5959
69.7427,80.5391
69.8076,80.5134
Z" /> 
<path style="fill:#C83434; fill-opacity:1.0000; stroke:none;fill-rule:evenodd;"
d="M 46.0447,77.8805
46.0512,77.8865
51.5008,83.3361
51.6914,83.5267
51.9022,83.6948
52.1305,83.8383
52.1305,83.8383
52.3601,83.9488
52.3734,83.9553
52.3734,83.9553
52.6279,84.0443
52.6279,84.0443
52.8908,84.1043
53.1587,84.1345
53.1587,84.1345
53.1587,84.1345
56.8019,84.1345
56.8557,84.1468
56.9854,84.2093
57.1765,84.2761
57.2399,84.2983
57.2399,84.2983
57.2399,84.2983
57.2399,84.2983
57.5028,84.3583
57.7707,84.3885
57.7707,84.3885
57.7707,84.3885
58.1342,84.3885
58.2012,84.4082
58.2470,84.4610
58.2569,84.5301
58.2279,84.5937
58.1729,84.6303
58.0338,84.6760
58.0338,84.6760
57.7626,84.8074
57.7626,84.8074
57.6290,84.8959
57.5622,84.9165
57.5605,84.9165
50.1557,84.9165
49.8878,84.9467
49.8878,84.9467
49.6249,85.0067
49.6249,85.0067
49.3704,85.0957
49.3704,85.0957
49.1275,85.2127
48.9100,85.3494
48.8992,85.3562
48.6884,85.5243
46.4608,87.7519
46.2927,87.9627
46.1492,88.1910
46.0752,88.3447
46.0284,88.3965
45.9610,88.4148
45.8943,88.3938
45.8497,88.3401
45.8395,88.2909
45.8395,77.9742
45.8592,77.9071
45.9120,77.8614
45.9811,77.8514
Z" /> 
<path style="fill:#C83434; fill-opacity:1.0000; stroke:none;fill-rule:evenodd;"
d="M 55.6594,89.7372
55.7052,89.7900
55.7151,89.8591
55.7133,89.8691
55.6540,90.1287
55.6474,90.1576
55.6461,90.1572
55.6179,90.2151
55.5582,90.2513
55.5263,90.2555
51.1407,90.2555
51.0737,90.2358
51.0279,90.1830
51.0200,90.1574
51.0196,90.1576
51.0130,90.1287
51.0023,90.0821
51.0066,90.0123
51.0355,89.9668
51.2485,89.7538
51.3098,89.7203
51.3362,89.7175
55.5924,89.7175
Z" /> 
<path style="fill:#C83434; fill-opacity:1.0000; stroke:none;fill-rule:evenodd;"
d="M 69.3754,89.7372
69.4212,89.7900
69.4311,89.8591
69.4293,89.8691
69.3726,90.1175
69.3642,90.1542
69.3642,90.1542
69.3290,90.4667
69.3290,90.5691
69.3093,90.6361
69.2565,90.6819
69.2172,90.6925
69.0720,90.7068
69.0720,90.7068
68.7587,90.7691
68.4531,90.8618
68.1581,90.9840
68.1580,90.9840
67.8764,91.1346
67.8764,91.1346
67.6109,91.3120
67.6108,91.3120
67.3640,91.5146
67.1381,91.7405
67.1299,91.7506
67.0721,91.7899
67.0023,91.7918
66.9425,91.7556
66.9118,91.6928
66.9100,91.6719
66.9100,90.2415
66.9297,90.1745
66.9825,90.1287
67.0340,90.1175
67.2068,90.1175
67.2068,90.1175
67.5193,90.0823
67.8260,90.0123
68.1229,89.9084
68.4063,89.7719
68.4627,89.7365
68.5286,89.7175
69.3084,89.7175
Z" /> 
<path style="fill:#C83434; fill-opacity:1.0000; stroke:none;fill-rule:evenodd;"
d="M 69.6483,97.3245
69.7043,97.3664
69.7287,97.4318
69.7290,97.4407
69.7290,99.1313
69.7093,99.1983
69.6565,99.2441
69.6050,99.2553
66.7748,99.2553
66.7078,99.2356
66.6620,99.1828
66.6521,99.1137
66.6811,99.0501
66.7210,99.0196
66.7282,99.0161
66.7846,98.9807
66.8505,98.9617
67.0491,98.9617
67.0491,98.9617
67.3170,98.9315
67.5799,98.8715
67.8344,98.7825
67.9081,98.7470
67.9081,98.7470
68.0773,98.6655
68.0773,98.6655
68.0773,98.6655
68.3056,98.5220
68.5164,98.3539
68.7070,98.1633
69.5173,97.3530
69.5786,97.3195
Z" /> 
<path style="fill:#C83434; fill-opacity:1.0000; stroke:none;fill-rule:evenodd;"
d="M 63.9582,98.9807
64.0146,99.0161
64.0218,99.0196
64.0736,99.0664
64.0920,99.1338
64.0709,99.2005
64.0172,99.2451
63.9680,99.2553
55.6729,99.2553
55.6058,99.2356
55.5852,99.2190
55.5396,99.1734
55.5061,99.1121
55.5111,99.0424
55.5530,98.9864
55.6184,98.9620
55.6273,98.9617
63.8923,98.9617
Z" /> 
<path style="fill:#C83434; fill-opacity:1.0000; stroke:none;fill-rule:evenodd;"
d="M 29.3063,33.3758
29.3128,33.3818
32.9350,37.0040
32.9685,37.0654
32.9713,37.0917
32.9713,39.7502
33.0050,40.0924
33.0721,40.4298
33.1719,40.7589
33.3036,41.0767
33.3036,41.0767
33.4657,41.3800
33.4657,41.3800
33.6568,41.6660
33.6568,41.6660
33.8750,41.9318
34.1182,42.1750
34.1182,42.1750
34.1182,42.1750
34.3840,42.3932
34.6700,42.5843
34.6700,42.5843
34.6700,42.5843
34.9733,42.7464
34.9733,42.7464
34.9733,42.7464
35.2911,42.8780
35.6202,42.9779
35.9575,43.0450
36.2998,43.0787
36.6438,43.0787
37.3521,43.0787
37.4191,43.0984
37.4649,43.1512
37.4748,43.2203
37.4708,43.2387
37.4366,43.3512
37.3743,43.6645
37.3430,43.9823
37.3430,44.3017
37.3743,44.6195
37.4366,44.9328
37.5293,45.2384
37.6515,45.5334
37.6515,45.5335
37.7620,45.7402
37.7763,45.8086
37.7513,45.8738
37.7404,45.8863
36.4267,47.2000
36.2361,47.3906
36.0680,47.6014
35.9245,47.8297
35.8773,47.9277
35.8773,47.9277
35.8075,48.0726
35.8075,48.0726
35.7185,48.3271
35.7185,48.3271
35.6643,48.5646
35.6585,48.5900
35.6585,48.5900
35.6283,48.8579
35.6283,72.4536
35.6585,72.7215
35.6585,72.7215
35.7185,72.9844
35.7185,72.9844
35.7929,73.1971
35.7929,73.1971
35.7929,73.1971
35.8075,73.2389
35.9245,73.4818
35.9245,73.4818
35.9352,73.4988
35.9423,73.5101
35.9423,73.5101
35.9423,73.5101
36.0680,73.7101
36.1758,73.8453
36.2361,73.9209
41.0022,78.6870
41.0357,78.7483
41.0385,78.7747
41.0385,90.9366
41.0687,91.2045
41.0687,91.2045
41.0932,91.3120
41.1287,91.4674
41.1452,91.5146
41.1490,91.5255
41.1490,91.5255
41.2177,91.7219
41.3347,91.9648
41.3489,91.9873
41.4406,92.1333
41.4782,92.1931
41.6463,92.4039
43.5005,94.2581
43.6911,94.4487
43.9019,94.6168
44.1302,94.7603
44.1302,94.7603
44.3520,94.8671
44.3731,94.8773
44.5642,94.9441
44.6276,94.9663
44.6276,94.9663
44.8732,95.0224
44.8905,95.0263
45.1584,95.0565
45.1584,95.0565
45.1584,95.0565
48.0238,95.0565
48.0909,95.0762
48.1366,95.1290
48.1466,95.1981
48.1175,95.2617
48.1115,95.2682
46.2057,97.1740
46.0151,97.3646
45.8470,97.5754
45.7035,97.8037
45.6276,97.9613
45.5808,98.0132
45.5133,98.0315
45.5020,98.0308
45.4251,98.0221
45.4251,98.0221
45.1105,98.0221
45.1105,98.0221
44.7980,98.0573
44.7980,98.0573
44.4913,98.1273
44.4913,98.1273
44.1944,98.2312
44.1944,98.2312
44.0516,98.3000
43.9827,98.3113
43.9440,98.3000
43.8012,98.2312
43.8012,98.2312
43.5043,98.1273
43.5043,98.1273
43.1976,98.0573
43.1976,98.0573
42.8851,98.0221
42.8851,98.0221
42.5705,98.0221
42.5705,98.0221
42.2580,98.0573
42.2580,98.0573
41.9513,98.1273
41.9513,98.1273
41.6544,98.2312
41.3710,98.3677
41.3146,98.4031
41.2487,98.4221
40.8462,98.4221
40.5783,98.4523
40.5783,98.4523
40.3154,98.5123
40.3154,98.5123
40.1405,98.5735
40.1405,98.5735
40.0609,98.6013
39.8180,98.7183
39.7323,98.7722
39.5897,98.8618
39.3789,99.0299
34.6947,103.7141
34.6334,103.7476
34.6070,103.7504
29.1561,103.7504
29.0891,103.7307
29.0433,103.6779
29.0334,103.6088
29.0468,103.5679
29.2214,103.2413
29.2214,103.2413
29.3718,102.8782
29.4859,102.5020
29.4859,102.5020
29.4859,102.5020
29.5626,102.1165
29.5924,101.8141
29.6011,101.7253
29.6011,101.3323
29.5626,100.9411
29.5540,100.8980
29.4859,100.5556
29.4859,100.5556
29.4859,100.5556
29.4859,100.5556
29.3718,100.1794
29.2214,99.8163
29.1157,99.6187
29.1011,99.5602
29.1011,65.0926
29.1157,65.0341
29.2214,64.8365
29.3718,64.4734
29.4859,64.0972
29.4859,64.0972
29.4859,64.0972
29.5626,63.7117
29.6011,63.3205
29.6011,62.9275
29.5686,62.5972
29.5626,62.5363
29.5217,62.3309
29.4859,62.1508
29.4859,62.1508
29.4859,62.1508
29.4859,62.1508
29.3718,61.7746
29.2214,61.4115
29.1157,61.2139
29.1011,61.1554
29.1011,33.4695
29.1208,33.4025
29.1736,33.3567
29.2427,33.3468
Z" /> 
<path style="fill:#C83434; fill-opacity:1.0000; stroke:none;fill-rule:evenodd;"
d="M 21.6047,23.7681
21.6606,23.8099
21.6851,23.8754
21.6830,23.9084
21.6386,24.1315
21.6088,24.4345
21.6001,24.5227
21.6001,24.9157
21.6039,24.9546
21.6386,25.3069
21.7153,25.6924
21.7153,25.6924
21.8294,26.0686
21.8908,26.2167
21.9798,26.4317
22.0855,26.6293
22.1001,26.6878
22.1001,61.1554
22.0855,61.2139
21.9798,61.4115
21.9798,61.4115
21.8294,61.7746
21.7153,62.1508
21.7153,62.1508
21.6386,62.5363
21.6001,62.9275
21.6001,63.3205
21.6386,63.7117
21.7153,64.0972
21.7153,64.0972
21.8294,64.4734
21.9347,64.7276
21.9798,64.8365
22.0855,65.0341
22.1001,65.0926
22.1001,99.5602
22.0855,99.6187
21.9798,99.8163
21.9798,99.8163
21.8294,100.1794
21.7153,100.5556
21.7153,100.5556
21.6386,100.9411
21.6001,101.3323
21.6001,101.7253
21.6386,102.1165
21.7153,102.5020
21.7153,102.5020
21.7899,102.7479
21.8294,102.8782
21.9593,103.1918
21.9798,103.2413
21.9798,103.2413
22.1544,103.5679
22.1687,103.6364
22.1437,103.7016
22.0874,103.7430
22.0451,103.7504
21.2684,103.7504
21.2013,103.7307
21.1807,103.7141
19.6374,102.1708
19.6039,102.1095
19.6011,102.0831
19.6011,99.6928
19.5933,99.5602
19.5907,99.5156
19.5357,99.2193
19.5356,99.2193
19.5356,99.2193
19.4572,98.9807
19.4416,98.9331
19.3514,98.7470
19.3102,98.6619
19.3102,98.6619
19.1439,98.4107
19.1439,98.4107
19.1318,98.3969
19.1024,98.3334
19.1011,98.3152
19.1011,66.3376
19.1208,66.2705
19.1318,66.2559
19.1439,66.2421
19.3102,65.9909
19.4416,65.7197
19.5357,65.4335
19.5907,65.1372
19.6011,64.9600
19.6011,61.2880
19.5907,61.1108
19.5357,60.8145
19.5356,60.8145
19.5356,60.8145
19.4602,60.5850
19.4416,60.5283
19.3506,60.3406
19.3102,60.2571
19.3102,60.2571
19.1439,60.0059
19.1439,60.0059
19.1318,59.9921
19.1024,59.9286
19.1011,59.9104
19.1011,27.9328
19.1208,27.8657
19.1318,27.8511
19.1439,27.8373
19.3102,27.5861
19.4416,27.3149
19.5357,27.0287
19.5907,26.7324
19.6011,26.5552
19.6011,25.7205
19.6208,25.6535
19.6374,25.6328
21.4737,23.7966
21.5350,23.7631
Z" /> 
<path style="fill:#C83434; fill-opacity:1.0000; stroke:none;fill-rule:evenodd;"
d="M 52.1683,103.3174
52.2148,103.3696
52.2267,103.4226
52.2267,103.6795
52.2144,103.7333
52.1113,103.9474
52.1113,103.9474
52.0715,104.0613
52.0307,104.1180
51.9658,104.1438
51.9544,104.1443
48.1803,104.1443
48.1132,104.1246
48.0675,104.0718
48.0575,104.0027
48.0866,103.9391
48.0926,103.9326
48.2748,103.7504
48.4593,103.5659
48.5194,103.5327
48.5843,103.5179
48.8143,103.4374
48.8841,103.4338
48.9093,103.4429
48.9461,103.4607
48.9521,103.4636
49.0489,103.4954
49.2383,103.5576
49.2383,103.5576
49.2383,103.5576
49.5346,103.6127
49.7118,103.6231
50.9838,103.6231
51.1610,103.6127
51.4573,103.5576
51.4573,103.5576
51.4573,103.5576
51.5783,103.5179
51.7435,103.4636
52.0147,103.3322
52.0342,103.3192
52.1010,103.2986
Z" /> 
<path style="fill:#C83434; fill-opacity:1.0000; stroke:none;fill-rule:evenodd;"
d="M 41.8243,103.4734
41.9513,103.5179
42.2580,103.5879
42.5705,103.6231
42.5705,103.6231
42.5705,103.6231
42.7433,103.6231
42.8103,103.6428
42.8561,103.6956
42.8673,103.7471
42.8673,105.5181
42.8476,105.5851
42.7948,105.6309
42.7433,105.6421
42.5705,105.6421
42.2580,105.6773
42.2580,105.6773
41.9513,105.7473
41.9513,105.7473
41.6544,105.8512
41.3710,105.9877
41.1047,106.1550
40.8588,106.3511
40.6363,106.5736
40.4402,106.8195
40.2729,107.0858
40.2543,107.1244
40.2075,107.1763
40.1400,107.1946
40.0734,107.1735
40.0549,107.1583
39.1352,106.2386
39.1017,106.1773
39.1067,106.1076
39.1352,106.0632
40.3463,104.8522
41.6956,103.5028
41.7569,103.4693
Z" /> 
<path style="fill:#C83434; fill-opacity:1.0000; stroke:none;fill-rule:evenodd;"
d="M 62.8979,113.6468
62.9509,113.6923
62.9709,113.7592
62.9709,113.7598
62.9709,116.8967
62.9512,116.9637
62.8984,117.0095
62.8469,117.0207
54.8268,117.0207
54.7598,117.0010
54.7141,116.9482
54.7041,116.8791
54.7331,116.8155
54.7859,116.7797
54.8133,116.7701
54.8878,116.7440
55.1712,116.6075
55.4375,116.4402
55.6834,116.2441
55.9059,116.0216
56.1020,115.7757
56.2693,115.5094
56.4058,115.2260
56.5097,114.9291
56.5292,114.8438
56.5531,114.7941
56.5891,114.7490
56.6635,114.6556
56.7586,114.5043
56.8070,114.4273
56.9240,114.1844
57.0130,113.9299
57.0184,113.9063
57.0525,113.8453
57.1142,113.8125
57.1393,113.8099
58.8796,113.8099
58.9467,113.8296
58.9481,113.8305
59.0817,113.9190
59.0817,113.9190
59.1870,113.9700
59.3529,114.0504
59.4468,114.0813
59.6391,114.1444
59.6391,114.1444
59.6391,114.1444
59.9354,114.1995
60.1126,114.2099
61.3846,114.2099
61.5618,114.1995
61.8581,114.1444
61.8581,114.1444
61.8581,114.1444
62.0065,114.0957
62.1443,114.0504
62.4155,113.9190
62.6667,113.7527
62.7653,113.6664
62.8287,113.6371
Z" /> 
<path style="fill:#C83434; fill-opacity:1.0000; stroke:none;fill-rule:evenodd;"
d="M 51.1698,112.8778
51.2257,112.9196
51.2501,112.9851
51.2381,113.0478
51.2230,113.0792
51.1191,113.3761
51.1191,113.3761
51.0491,113.6828
51.0491,113.6828
51.0139,113.9953
51.0139,114.3099
51.0491,114.6224
51.0491,114.6224
51.1191,114.9291
51.1191,114.9291
51.2230,115.2260
51.3595,115.5094
51.3595,115.5094
51.5268,115.7757
51.6153,115.8867
51.7032,115.9969
51.7229,116.0216
51.9454,116.2441
52.1913,116.4402
52.4576,116.6075
52.7410,116.7440
52.7977,116.7638
52.8429,116.7797
52.8997,116.8204
52.9254,116.8853
52.9120,116.9539
52.8636,117.0043
52.8019,117.0207
49.9687,117.0207
49.9016,117.0010
49.8810,116.9844
47.0536,114.1570
47.0201,114.0957
47.0251,114.0260
47.0670,113.9700
47.1324,113.9456
47.1413,113.9453
49.1402,113.9453
49.1402,113.9453
49.4081,113.9151
49.6710,113.8551
49.9255,113.7661
49.9533,113.7527
50.1684,113.6491
50.3967,113.5056
50.6075,113.3375
50.7981,113.1469
50.8567,113.0883
50.8567,113.0883
51.0387,112.9063
51.1001,112.8728
Z" /> 
<path style="fill:#C83434; fill-opacity:1.0000; stroke:none;fill-rule:evenodd;"
d="M 0.7057,121.7993
0.7302,121.8283
0.8375,122.0033
0.9197,122.1165
1.0915,122.3529
1.0915,122.3530
1.3722,122.6816
1.3722,122.6816
1.6779,122.9873
1.6779,122.9873
2.0065,123.2680
2.0065,123.2680
2.3562,123.5220
2.3562,123.5220
2.3562,123.5220
2.7247,123.7479
2.7248,123.7479
2.7248,123.7479
3.1099,123.9441
3.5092,124.1095
3.5092,124.1095
3.5688,124.1289
3.9203,124.2431
3.9697,124.2549
4.0303,124.2897
4.0624,124.3517
4.0560,124.4213
4.0129,124.4763
3.9469,124.4993
3.9407,124.4995
0.6245,124.4995
0.5575,124.4798
0.5117,124.4270
0.5005,124.3755
0.5005,121.8931
0.5202,121.8260
0.5730,121.7803
0.6421,121.7703
Z" /> 
</g>
<g style="fill:#FFFFFF; fill-opacity:1.0000; stroke:none;">
<circle cx="40.5935" cy="35.7600" r="0.8500" /> 
<circle cx="40.5935" cy="44.1420" r="0.8500" /> 
<circle cx="70.5662" cy="74.0968" r="0.8500" /> 
<circle cx="70.5408" cy="63.9368" r="0.8500" /> 
<circle cx="69.5495" cy="93.9260" r="0.8500" /> 
<circle cx="75.3915" cy="93.9260" r="0.8500" /> 
</g>
<g style="fill:#FFFFFF; fill-opacity:1.0000; stroke:none;">
<circle cx="48.4675" cy="63.9540" r="0.4500" /> 
</g>
<g style="fill:#FFFFFF; fill-opacity:1.0000; stroke:none;">
<circle cx="51.0075" cy="63.9540" r="0.4500" /> 
</g>
<g style="fill:#FFFFFF; fill-opacity:1.0000; stroke:none;">
<circle cx="5.5415" cy="5.5340" r="2.1500" /> 
</g>
<g style="fill:#FFFFFF; fill-opacity:1.0000; stroke:none;">
<circle cx="65.3714" cy="119.4212" r="0.4000" /> 
</g>
<g style="fill:#FFFFFF; fill-opacity:1.0000; stroke:none;">
<circle cx="65.3714" cy="109.2612" r="0.4000" /> 
</g>
<g style="fill:#FFFFFF; fill-opacity:1.0000; stroke:none;">
<circle cx="58.4135" cy="90.6240" r="0.4000" /> 
</g>
<g style="fill:#FFFFFF; fill-opacity:1.0000; stroke:none;">
<circle cx="48.2535" cy="90.6240" r="0.4000" /> 
</g>
<g style="fill:#FFFFFF; fill-opacity:1.0000; stroke:none;">
<circle cx="74.3755" cy="119.3260" r="2.1500" /> 
</g>
<g style="fill:#FFFFFF; fill-opacity:1.0000; stroke:none;">
<circle cx="59.4295" cy="87.3170" r="0.4000" /> 
</g>
<g style="fill:#FFFFFF; fill-opacity:1.0000; stroke:none;">
<circle cx="61.9695" cy="87.3170" r="0.4000" /> 
</g>
<g style="fill:#FFFFFF; fill-opacity:1.0000; stroke:none;">
<circle cx="64.5095" cy="87.3170" r="0.4000" /> 
</g>
<g style="fill:#FFFFFF; fill-opacity:1.0000; stroke:none;">
<circle cx="67.0495" cy="87.3170" r="0.4000" /> 
</g>
<g style="fill:#FFFFFF; fill-opacity:1.0000; stroke:none;">
<circle cx="67.0495" cy="79.6970" r="0.4000" /> 
</g>
<g style="fill:#FFFFFF; fill-opacity:1.0000; stroke:none;">
<circle cx="64.5095" cy="79.6970" r="0.4000" /> 
</g>
<g style="fill:#FFFFFF; fill-opacity:1.0000; stroke:none;">
<circle cx="61.9695" cy="79.6970" r="0.4000" /> 
</g>
<g style="fill:#FFFFFF; fill-opacity:1.0000; stroke:none;">
<circle cx="59.4295" cy="79.6970" r="0.4000" /> 
</g>
<g style="fill:#FFFFFF; fill-opacity:1.0000; stroke:none;">
<circle cx="54.6651" cy="42.1100" r="0.5500" /> 
</g>
<g style="fill:#FFFFFF; fill-opacity:1.0000; stroke:none;">
<circle cx="54.6651" cy="39.5700" r="0.5500" /> 
</g>
<g style="fill:#FFFFFF; fill-opacity:1.0000; stroke:none;">
<circle cx="54.6651" cy="37.0300" r="0.5500" /> 
</g>
<g style="fill:#FFFFFF; fill-opacity:1.0000; stroke:none;">
<circle cx="43.6544" cy="114.1526" r="0.4000" /> 
</g>
<g style="fill:#FFFFFF; fill-opacity:1.0000; stroke:none;">
<circle cx="53.8144" cy="114.1526" r="0.4000" /> 
</g>
<g style="fill:#FFFFFF; fill-opacity:1.0000; stroke:none;">
<circle cx="70.3115" cy="57.6040" r="0.4000" /> 
</g>
<g style="fill:#FFFFFF; fill-opacity:1.0000; stroke:none;">
<circle cx="60.1515" cy="57.6040" r="0.4000" /> 
</g>
<g style="fill:#FFFFFF; fill-opacity:1.0000; stroke:none;">
<circle cx="45.4195" cy="17.3450" r="0.7500" /> 
</g>
<g style="fill:#FFFFFF; fill-opacity:1.0000; stroke:none;">
<circle cx="55.5795" cy="17.3450" r="0.7500" /> 
</g>
<g style="fill:#FFFFFF; fill-opacity:1.0000; stroke:none;">
<circle cx="54.7027" cy="110.0208" r="0.4000" /> 
</g>
<g style="fill:#FFFFFF; fill-opacity:1.0000; stroke:none;">
<circle cx="54.7027" cy="105.0208" r="0.4000" /> 
</g>
<g style="fill:#FFFFFF; fill-opacity:1.0000; stroke:none;">
<circle cx="5.4145" cy="118.9450" r="2.1500" /> 
</g>
<g style="fill:#FFFFFF; fill-opacity:1.0000; stroke:none;">
<circle cx="73.8682" cy="96.9714" r="0.4000" /> 
</g>
<g style="fill:#FFFFFF; fill-opacity:1.0000; stroke:none;">
<circle cx="73.8682" cy="101.9714" r="0.4000" /> 
</g>
<g style="fill:#FFFFFF; fill-opacity:1.0000; stroke:none;">
<circle cx="64.9775" cy="63.9540" r="0.4000" /> 
</g>
<g style="fill:#FFFFFF; fill-opacity:1.0000; stroke:none;">
<circle cx="54.8175" cy="63.9540" r="0.4000" /> 
</g>
<g style="fill:#FFFFFF; fill-opacity:1.0000; stroke:none;">
<circle cx="50.3478" cy="100.8226" r="0.4000" /> 
</g>
<g style="fill:#FFFFFF; fill-opacity:1.0000; stroke:none;">
<circle cx="47.8078" cy="100.8226" r="0.4000" /> 
</g>
<g style="fill:#FFFFFF; fill-opacity:1.0000; stroke:none;">
<circle cx="45.2678" cy="100.8226" r="0.4000" /> 
</g>
<g style="fill:#FFFFFF; fill-opacity:1.0000; stroke:none;">
<circle cx="42.7278" cy="100.8226" r="0.4000" /> 
</g>
<g style="fill:#FFFFFF; fill-opacity:1.0000; stroke:none;">
<circle cx="42.7278" cy="108.4426" r="0.4000" /> 
</g>
<g style="fill:#FFFFFF; fill-opacity:1.0000; stroke:none;">
<circle cx="45.2678" cy="108.4426" r="0.4000" /> 
</g>
<g style="fill:#FFFFFF; fill-opacity:1.0000; stroke:none;">
<circle cx="47.8078" cy="108.4426" r="0.4000" /> 
</g>
<g style="fill:#FFFFFF; fill-opacity:1.0000; stroke:none;">
<circle cx="50.3478" cy="108.4426" r="0.4000" /> 
</g>
<g style="fill:#FFFFFF; fill-opacity:1.0000; stroke:none;">
<circle cx="15.6006" cy="24.7192" r="1.0000" /> 
</g>
<g style="fill:#FFFFFF; fill-opacity:1.0000; stroke:none;">
<circle cx="25.6006" cy="24.7192" r="1.0000" /> 
</g>
<g style="fill:#FFFFFF; fill-opacity:1.0000; stroke:none;">
<circle cx="72.1295" cy="90.6240" r="0.4000" /> 
</g>
<g style="fill:#FFFFFF; fill-opacity:1.0000; stroke:none;">
<circle cx="61.9695" cy="90.6240" r="0.4000" /> 
</g>
<g style="fill:#FFFFFF; fill-opacity:1.0000; stroke:none;">
<circle cx="43.1335" cy="61.4140" r="0.4000" /> 
</g>
<g style="fill:#FFFFFF; fill-opacity:1.0000; stroke:none;">
<circle cx="43.1335" cy="71.5740" r="0.4000" /> 
</g>
<g style="fill:#FFFFFF; fill-opacity:1.0000; stroke:none;">
<circle cx="15.6006" cy="101.5288" r="1.0000" /> 
</g>
<g style="fill:#FFFFFF; fill-opacity:1.0000; stroke:none;">
<circle cx="25.6006" cy="101.5288" r="1.0000" /> 
</g>
<g style="fill:#FFFFFF; fill-opacity:1.0000; stroke:none;">
<circle cx="50.4995" cy="52.2700" r="1.2500" /> 
</g>
<g style="fill:#FFFFFF; fill-opacity:1.0000; stroke:none;">
<circle cx="50.4995" cy="26.8700" r="1.2500" /> 
</g>
<g style="fill:#FFFFFF; fill-opacity:1.0000; stroke:none;">
<circle cx="15.6006" cy="63.1240" r="1.0000" /> 
</g>
<g style="fill:#FFFFFF; fill-opacity:1.0000; stroke:none;">
<circle cx="25.6006" cy="63.1240" r="1.0000" /> 
</g>
<g style="fill:#FFFFFF; fill-opacity:1.0000; stroke:none;">
<circle cx="59.4695" cy="74.1140" r="0.4000" /> 
</g>
<g style="fill:#FFFFFF; fill-opacity:1.0000; stroke:none;">
<circle cx="66.9695" cy="74.1140" r="0.4000" /> 
</g>
<g style="fill:#FFFFFF; fill-opacity:1.0000; stroke:none;">
<circle cx="74.3755" cy="5.5340" r="2.1500" /> 
</g>
<g style="fill:#FFFFFF; fill-opacity:1.0000; stroke:none;">
<circle cx="65.3714" cy="106.7212" r="0.4000" /> 
</g>
<g style="fill:#FFFFFF; fill-opacity:1.0000; stroke:none;">
<circle cx="65.3714" cy="96.5612" r="0.4000" /> 
</g>
<g style="fill:#FFFFFF; fill-opacity:1.0000; stroke:none;">
<circle cx="60.7486" cy="111.4094" r="0.4000" /> 
</g>
<g style="fill:#FFFFFF; fill-opacity:1.0000; stroke:none;">
<circle cx="60.7486" cy="103.7894" r="0.4000" /> 
</g>
<g style="fill:#FFFFFF; fill-opacity:1.0000; stroke:none;">
<circle cx="67.7715" cy="17.2180" r="0.7000" /> 
</g>
<g style="fill:#FFFFFF; fill-opacity:1.0000; stroke:none;">
<circle cx="67.7715" cy="22.2980" r="0.7000" /> 
</g>
<g style="fill:#FFFFFF; fill-opacity:1.0000; stroke:none;">
<circle cx="67.7715" cy="27.3780" r="0.7000" /> 
</g>
<g style="fill:#FFFFFF; fill-opacity:1.0000; stroke:none;">
<circle cx="67.6445" cy="39.5700" r="0.7000" /> 
</g>
<g style="fill:#FFFFFF; fill-opacity:1.0000; stroke:none;">
<circle cx="67.6445" cy="44.6500" r="0.7000" /> 
</g>
<g style="fill:#FFFFFF; fill-opacity:1.0000; stroke:none;">
<circle cx="67.6445" cy="49.7300" r="0.7000" /> 
</g> 
</svg>
